<?xml version="1.0" encoding="utf-8"?>
<!-- Generator: Adobe Illustrator 24.2.0, SVG Export Plug-In . SVG Version: 6.00 Build 0)  -->
<svg version="1.1" id="Ñëîé_1" xmlns="http://www.w3.org/2000/svg" xmlns:xlink="http://www.w3.org/1999/xlink" x="0px" y="0px"
	 viewBox="0 0 600 450" style="enable-background:new 0 0 600 450;" xml:space="preserve">
<style type="text/css">
	.st0{clip-path:url(#SVGID_2_);fill:url(#SVGID_3_);}
	.st1{clip-path:url(#SVGID_2_);}
	.st2{fill:#8686F2;}
	.st3{opacity:0.5;fill:url(#SVGID_4_);}
	.st4{opacity:0.5;fill:url(#SVGID_5_);}
	.st5{opacity:0.5;fill:url(#SVGID_6_);}
	.st6{fill:url(#SVGID_7_);}
	.st7{fill:#BCBEFF;}
	.st8{fill:#FFFFFF;}
	.st9{fill:#0F054C;}
	.st10{opacity:0.5;fill:url(#SVGID_8_);}
	.st11{opacity:0.5;fill:url(#SVGID_9_);}
	.st12{opacity:0.5;fill:url(#SVGID_10_);}
	.st13{opacity:0.5;fill:url(#SVGID_11_);}
	.st14{opacity:0.5;fill:#42E8E0;}
	.st15{opacity:0.5;fill:url(#SVGID_12_);}
	.st16{opacity:0.5;fill:url(#SVGID_13_);}
	.st17{opacity:0.8;fill:#42E8E0;}
	.st18{opacity:0.11;}
	.st19{fill:url(#SVGID_14_);}
	.st20{fill:url(#SVGID_15_);}
	.st21{fill:url(#SVGID_16_);}
	.st22{fill:url(#SVGID_17_);}
	.st23{opacity:0.5;fill:url(#SVGID_18_);}
	.st24{fill:url(#SVGID_19_);}
	.st25{opacity:0.5;}
	.st26{fill:#42E8E0;}
	.st27{fill:url(#SVGID_20_);}
	.st28{fill:url(#SVGID_21_);}
	.st29{fill:url(#SVGID_22_);}
	.st30{fill:url(#SVGID_23_);}
	.st31{fill:url(#SVGID_24_);}
	.st32{opacity:0.5;fill:url(#SVGID_25_);}
	.st33{fill:url(#SVGID_26_);}
	.st34{fill:url(#SVGID_27_);}
	.st35{opacity:0.502;fill:#42E8E0;}
	.st36{opacity:0.7529;fill:#42E8E0;}
	.st37{opacity:0.8784;fill:#42E8E0;}
	.st38{opacity:0.9725;fill:#42E8E0;}
	.st39{fill:url(#SVGID_28_);}
	.st40{fill:url(#SVGID_29_);}
	.st41{fill:url(#SVGID_30_);}
	.st42{fill:url(#SVGID_31_);}
	.st43{opacity:0.11;fill:url(#SVGID_32_);}
	.st44{fill:url(#SVGID_33_);}
	.st45{fill:url(#SVGID_34_);}
	.st46{fill:url(#SVGID_35_);}
	.st47{fill:url(#SVGID_36_);}
	.st48{opacity:0.5;fill:url(#SVGID_37_);}
	.st49{fill:url(#SVGID_38_);}
	.st50{fill:url(#SVGID_39_);}
	.st51{opacity:0.2;fill:#180D5B;}
	.st52{fill:#160A5B;}
	.st53{fill:#24126A;}
	.st54{fill:#453C9E;}
	.st55{fill:url(#SVGID_40_);}
	.st56{fill:url(#SVGID_41_);}
	.st57{fill:#F0F6FF;}
	.st58{fill:#FCD1C5;}
	.st59{fill:#4846A5;}
	.st60{fill:#AA8383;}
	.st61{fill:#C4CCD6;}
	.st62{fill:#E2B1A6;}
	.st63{fill:url(#SVGID_42_);}
	.st64{fill:#936D6D;}
</style>
<g>
	<defs>
		<path id="SVGID_1_" d="M549.37,276.37c-9.78,65.84-57.43,106.86-119.09,130.01l0,0c-5.49,2.06-11.1,3.99-16.8,5.77
			c-4.16,1.3-8.37,2.53-12.63,3.69c-0.43,0.12-0.85,0.23-1.26,0.34c-0.39,0.11-0.79,0.21-1.19,0.32
			c-18.38,4.87-37.54,8.43-56.97,10.84c-9.72,1.2-19.51,2.12-29.3,2.76c-18.36,1.21-36.72,1.46-54.66,0.89
			c-2.76-0.09-5.5-0.19-8.24-0.32c-1.08-0.05-2.17-0.1-3.25-0.16c-9.33-0.48-18.51-1.19-27.49-2.1h-0.01
			c-26.24-2.65-50.71-7.04-71.82-12.7c0,0,0,0-0.01,0c-3.87-1.04-7.63-2.12-11.27-3.24c-1.7-0.52-3.37-1.05-5.01-1.6
			c-1.25-0.41-2.49-0.83-3.72-1.25c-12.18-4.21-22.71-8.9-31.16-13.93C25.38,353.93-18.35,170.95,66.47,110.12
			c104.08-74.65,123.33-1.92,209.93-75.78C379.4-53.49,580.93,63.91,549.37,276.37z"/>
	</defs>
	<clipPath id="SVGID_2_">
		<use xlink:href="#SVGID_1_"  style="overflow:visible;"/>
	</clipPath>
	
		<radialGradient id="SVGID_3_" cx="127.2498" cy="155.1056" r="265.165" fx="-122.8118" fy="66.8919" gradientUnits="userSpaceOnUse">
		<stop  offset="0" style="stop-color:#2B237C"/>
		<stop  offset="1" style="stop-color:#180D5B"/>
	</radialGradient>
	<rect x="-13.76" y="2.1" class="st0" width="600" height="450"/>
	<g class="st1">
		<path class="st2" d="M286.33,284.45c-1.19,0-2.33-0.25-3.19-0.75l-71.82-41.47c-0.93-0.54-1.44-1.3-1.44-2.16
			c0-0.99,0.7-1.96,1.92-2.67l70.86-40.91c2.17-1.25,5.35-1.37,7.25-0.28l71.82,41.47c0.93,0.54,1.44,1.3,1.44,2.16
			c0,0.99-0.7,1.96-1.92,2.67l-70.86,40.91C289.21,284.11,287.73,284.45,286.33,284.45z M283.69,282.74
			c1.54,0.89,4.35,0.76,6.14-0.28l70.86-40.91c0.85-0.49,1.36-1.13,1.36-1.7c0-0.57-0.48-0.97-0.88-1.2l-71.82-41.47
			c-1.54-0.88-4.35-0.76-6.14,0.28l-70.86,40.91c-0.85,0.49-1.36,1.13-1.36,1.7c0,0.57,0.48,0.97,0.88,1.2L283.69,282.74z"/>
		<linearGradient id="SVGID_4_" gradientUnits="userSpaceOnUse" x1="201.4649" y1="275.5654" x2="247.9484" y2="275.5654">
			<stop  offset="0" style="stop-color:#5761D7"/>
			<stop  offset="0.0726" style="stop-color:#5472D8"/>
			<stop  offset="0.2791" style="stop-color:#4E9CDB"/>
			<stop  offset="0.4801" style="stop-color:#49BDDD"/>
			<stop  offset="0.6715" style="stop-color:#45D5DF"/>
			<stop  offset="0.8493" style="stop-color:#43E3E0"/>
			<stop  offset="1" style="stop-color:#42E8E0"/>
		</linearGradient>
		<path class="st3" d="M202.02,289.22c-0.19,0-0.38-0.1-0.48-0.28c-0.15-0.27-0.06-0.61,0.2-0.76l45.37-26.19
			c0.26-0.15,0.61-0.06,0.76,0.2c0.15,0.27,0.06,0.61-0.2,0.76l-45.37,26.19C202.21,289.19,202.12,289.22,202.02,289.22z"/>
		<linearGradient id="SVGID_5_" gradientUnits="userSpaceOnUse" x1="325.2391" y1="275.4913" x2="371.4666" y2="275.4913">
			<stop  offset="0" style="stop-color:#42E8E0"/>
			<stop  offset="0.1507" style="stop-color:#43E3E0"/>
			<stop  offset="0.3285" style="stop-color:#45D5DF"/>
			<stop  offset="0.5199" style="stop-color:#49BDDD"/>
			<stop  offset="0.7209" style="stop-color:#4E9CDB"/>
			<stop  offset="0.9274" style="stop-color:#5472D8"/>
			<stop  offset="1" style="stop-color:#5761D7"/>
		</linearGradient>
		<path class="st4" d="M370.91,289.07c-0.1,0-0.19-0.02-0.28-0.08l-45.12-26.05c-0.27-0.15-0.36-0.49-0.2-0.76
			c0.15-0.27,0.5-0.36,0.76-0.2l45.12,26.05c0.27,0.15,0.36,0.49,0.2,0.76C371.29,288.97,371.1,289.07,370.91,289.07z"/>
		<linearGradient id="SVGID_6_" gradientUnits="userSpaceOnUse" x1="199.1093" y1="351.7602" x2="373.2595" y2="351.7602">
			<stop  offset="0" style="stop-color:#5761D7"/>
			<stop  offset="0.0726" style="stop-color:#5472D8"/>
			<stop  offset="0.2791" style="stop-color:#4E9CDB"/>
			<stop  offset="0.4801" style="stop-color:#49BDDD"/>
			<stop  offset="0.6715" style="stop-color:#45D5DF"/>
			<stop  offset="0.8493" style="stop-color:#43E3E0"/>
			<stop  offset="1" style="stop-color:#42E8E0"/>
		</linearGradient>
		<path class="st5" d="M286.33,376.56c-1.83,0-3.66-0.47-5.29-1.42c-18.49-10.72-80.08-46.32-81.55-46.98
			c-0.3-0.09-0.44-0.39-0.36-0.68c0.08-0.29,0.41-0.46,0.71-0.37c0.96,0.28,80.95,46.6,81.76,47.07c2.92,1.69,6.55,1.69,9.47,0
			l81.35-47.15c0.26-0.15,0.6-0.07,0.76,0.2c0.15,0.27,0.06,0.61-0.2,0.76l-81.35,47.15C289.99,376.09,288.16,376.56,286.33,376.56z
			"/>
		<g>
			<g>
				<linearGradient id="SVGID_7_" gradientUnits="userSpaceOnUse" x1="172.3427" y1="236.0418" x2="367.8231" y2="236.0418">
					<stop  offset="0" style="stop-color:#5761D7"/>
					<stop  offset="0.1645" style="stop-color:#5E67DA"/>
					<stop  offset="0.4051" style="stop-color:#727AE2"/>
					<stop  offset="0.6924" style="stop-color:#9297EE"/>
					<stop  offset="1" style="stop-color:#BCBEFF"/>
				</linearGradient>
				<polygon class="st6" points="362.6,209.62 362.6,218.43 286.33,262.47 210.06,218.43 210.06,209.62 				"/>
				<polygon class="st7" points="286.33,253.65 210.06,209.62 286.33,165.58 362.6,209.62 				"/>
				<polygon class="st8" points="286.33,252.62 210.95,209.1 210.06,209.62 286.33,253.65 362.6,209.62 361.71,209.1 				"/>
			</g>
			<g>
				<polygon class="st9" points="286.33,243.5 227.67,209.63 286.33,175.76 345,209.63 				"/>
				<g>
					<linearGradient id="SVGID_8_" gradientUnits="userSpaceOnUse" x1="227.6641" y1="209.6268" x2="344.9964" y2="209.6268">
						<stop  offset="0" style="stop-color:#42E8E0"/>
						<stop  offset="0.1507" style="stop-color:#43E3E0"/>
						<stop  offset="0.3285" style="stop-color:#45D5DF"/>
						<stop  offset="0.5199" style="stop-color:#49BDDD"/>
						<stop  offset="0.7209" style="stop-color:#4E9CDB"/>
						<stop  offset="0.9274" style="stop-color:#5472D8"/>
						<stop  offset="1" style="stop-color:#5761D7"/>
					</linearGradient>
					<polygon class="st10" points="286.33,243.5 227.66,209.63 286.33,175.76 345,209.63 					"/>
					<g>
						<linearGradient id="SVGID_9_" gradientUnits="userSpaceOnUse" x1="286.3294" y1="188.4208" x2="344.9964" y2="188.4208">
							<stop  offset="0" style="stop-color:#42E8E0"/>
							<stop  offset="0.1507" style="stop-color:#43E3E0"/>
							<stop  offset="0.3285" style="stop-color:#45D5DF"/>
							<stop  offset="0.5199" style="stop-color:#49BDDD"/>
							<stop  offset="0.7209" style="stop-color:#4E9CDB"/>
							<stop  offset="0.9274" style="stop-color:#5472D8"/>
							<stop  offset="1" style="stop-color:#5761D7"/>
						</linearGradient>
						<polygon class="st11" points="286.33,167.21 345,201.09 345,209.63 286.33,175.76 						"/>
						<linearGradient id="SVGID_10_" gradientUnits="userSpaceOnUse" x1="227.6641" y1="188.4203" x2="286.3311" y2="188.4203">
							<stop  offset="0" style="stop-color:#42E8E0"/>
							<stop  offset="0.1507" style="stop-color:#43E3E0"/>
							<stop  offset="0.3285" style="stop-color:#45D5DF"/>
							<stop  offset="0.5199" style="stop-color:#49BDDD"/>
							<stop  offset="0.7209" style="stop-color:#4E9CDB"/>
							<stop  offset="0.9274" style="stop-color:#5472D8"/>
							<stop  offset="1" style="stop-color:#5761D7"/>
						</linearGradient>
						<polygon class="st12" points="286.33,175.76 227.66,209.63 227.66,201.09 286.33,167.21 						"/>
						<linearGradient id="SVGID_11_" gradientUnits="userSpaceOnUse" x1="227.6641" y1="201.0856" x2="344.9964" y2="201.0856">
							<stop  offset="0" style="stop-color:#42E8E0"/>
							<stop  offset="0.1507" style="stop-color:#43E3E0"/>
							<stop  offset="0.3285" style="stop-color:#45D5DF"/>
							<stop  offset="0.5199" style="stop-color:#49BDDD"/>
							<stop  offset="0.7209" style="stop-color:#4E9CDB"/>
							<stop  offset="0.9274" style="stop-color:#5472D8"/>
							<stop  offset="1" style="stop-color:#5761D7"/>
						</linearGradient>
						<polygon class="st13" points="286.33,234.96 227.66,201.09 286.33,167.21 345,201.09 						"/>
						<polygon class="st14" points="286.33,214.62 262.89,201.09 286.33,187.55 309.77,201.09 						"/>
						<polygon class="st14" points="286.33,188.8 308.69,201.71 309.77,201.09 286.33,187.55 262.89,201.09 263.97,201.71 						"/>
						<linearGradient id="SVGID_12_" gradientUnits="userSpaceOnUse" x1="286.3311" y1="222.2917" x2="344.9964" y2="222.2917">
							<stop  offset="0" style="stop-color:#42E8E0"/>
							<stop  offset="0.1507" style="stop-color:#43E3E0"/>
							<stop  offset="0.3285" style="stop-color:#45D5DF"/>
							<stop  offset="0.5199" style="stop-color:#49BDDD"/>
							<stop  offset="0.7209" style="stop-color:#4E9CDB"/>
							<stop  offset="0.9274" style="stop-color:#5472D8"/>
							<stop  offset="1" style="stop-color:#5761D7"/>
						</linearGradient>
						<polygon class="st15" points="286.33,234.96 286.33,243.5 345,209.63 345,201.09 						"/>
					</g>
					<linearGradient id="SVGID_13_" gradientUnits="userSpaceOnUse" x1="227.6641" y1="222.2912" x2="286.3311" y2="222.2912">
						<stop  offset="0" style="stop-color:#42E8E0"/>
						<stop  offset="0.1507" style="stop-color:#43E3E0"/>
						<stop  offset="0.3285" style="stop-color:#45D5DF"/>
						<stop  offset="0.5199" style="stop-color:#49BDDD"/>
						<stop  offset="0.7209" style="stop-color:#4E9CDB"/>
						<stop  offset="0.9274" style="stop-color:#5472D8"/>
						<stop  offset="1" style="stop-color:#5761D7"/>
					</linearGradient>
					<polygon class="st16" points="227.66,201.09 227.66,209.63 286.33,243.5 286.33,234.96 					"/>
				</g>
				<polygon class="st17" points="286.33,234.02 228.47,200.62 227.66,201.09 286.33,234.96 345,201.09 344.19,200.62 				"/>
			</g>
		</g>
		<g>
			<g class="st18">
				<linearGradient id="SVGID_14_" gradientUnits="userSpaceOnUse" x1="103.7123" y1="307.5806" x2="233.2653" y2="307.5806">
					<stop  offset="0" style="stop-color:#5761D7"/>
					<stop  offset="0.0726" style="stop-color:#5472D8"/>
					<stop  offset="0.2791" style="stop-color:#4E9CDB"/>
					<stop  offset="0.4801" style="stop-color:#49BDDD"/>
					<stop  offset="0.6715" style="stop-color:#45D5DF"/>
					<stop  offset="0.8493" style="stop-color:#43E3E0"/>
					<stop  offset="1" style="stop-color:#42E8E0"/>
				</linearGradient>
				<path class="st19" d="M173.5,272.19c-3.07-1.77-6.85-1.77-9.93-0.01l-59.16,34.08c-0.93,0.54-0.93,1.88,0,2.42l59.65,34.44
					c2.71,1.56,6.05,1.56,8.76,0l59.74-34.41c0.93-0.54,0.93-1.88,0-2.42L173.5,272.19z"/>
			</g>
			<g class="st18">
				<linearGradient id="SVGID_15_" gradientUnits="userSpaceOnUse" x1="103.7123" y1="297.6146" x2="233.2653" y2="297.6146">
					<stop  offset="0" style="stop-color:#5761D7"/>
					<stop  offset="0.0726" style="stop-color:#5472D8"/>
					<stop  offset="0.2791" style="stop-color:#4E9CDB"/>
					<stop  offset="0.4801" style="stop-color:#49BDDD"/>
					<stop  offset="0.6715" style="stop-color:#45D5DF"/>
					<stop  offset="0.8493" style="stop-color:#43E3E0"/>
					<stop  offset="1" style="stop-color:#42E8E0"/>
				</linearGradient>
				<path class="st20" d="M173.5,262.23c-3.07-1.77-6.85-1.77-9.93,0l-59.16,34.08c-0.93,0.54-0.93,1.88,0,2.42l59.65,34.44
					c2.71,1.56,6.05,1.56,8.76,0l59.74-34.41c0.93-0.54,0.93-1.88,0-2.42L173.5,262.23z"/>
			</g>
			<g class="st18">
				<linearGradient id="SVGID_16_" gradientUnits="userSpaceOnUse" x1="103.7123" y1="287.6485" x2="233.2653" y2="287.6485">
					<stop  offset="0" style="stop-color:#5761D7"/>
					<stop  offset="0.0726" style="stop-color:#5472D8"/>
					<stop  offset="0.2791" style="stop-color:#4E9CDB"/>
					<stop  offset="0.4801" style="stop-color:#49BDDD"/>
					<stop  offset="0.6715" style="stop-color:#45D5DF"/>
					<stop  offset="0.8493" style="stop-color:#43E3E0"/>
					<stop  offset="1" style="stop-color:#42E8E0"/>
				</linearGradient>
				<path class="st21" d="M173.5,252.26c-3.07-1.77-6.85-1.77-9.93-0.01l-59.16,34.08c-0.93,0.54-0.93,1.88,0,2.42l59.65,34.44
					c2.71,1.56,6.05,1.56,8.76,0l59.74-34.41c0.93-0.54,0.93-1.88,0-2.42L173.5,252.26z"/>
			</g>
			<g class="st18">
				<linearGradient id="SVGID_17_" gradientUnits="userSpaceOnUse" x1="103.7123" y1="277.6824" x2="233.2653" y2="277.6824">
					<stop  offset="0" style="stop-color:#5761D7"/>
					<stop  offset="0.0726" style="stop-color:#5472D8"/>
					<stop  offset="0.2791" style="stop-color:#4E9CDB"/>
					<stop  offset="0.4801" style="stop-color:#49BDDD"/>
					<stop  offset="0.6715" style="stop-color:#45D5DF"/>
					<stop  offset="0.8493" style="stop-color:#43E3E0"/>
					<stop  offset="1" style="stop-color:#42E8E0"/>
				</linearGradient>
				<path class="st22" d="M173.5,242.3c-3.07-1.77-6.85-1.77-9.93-0.01l-59.16,34.08c-0.93,0.54-0.93,1.88,0,2.42l59.65,34.44
					c2.71,1.56,6.05,1.56,8.76,0l59.74-34.41c0.93-0.54,0.93-1.88,0-2.42L173.5,242.3z"/>
			</g>
			<linearGradient id="SVGID_18_" gradientUnits="userSpaceOnUse" x1="103.7122" y1="287.7012" x2="233.2652" y2="287.7012">
				<stop  offset="0" style="stop-color:#5761D7"/>
				<stop  offset="0.0726" style="stop-color:#5472D8"/>
				<stop  offset="0.2791" style="stop-color:#4E9CDB"/>
				<stop  offset="0.4801" style="stop-color:#49BDDD"/>
				<stop  offset="0.6715" style="stop-color:#45D5DF"/>
				<stop  offset="0.8493" style="stop-color:#43E3E0"/>
				<stop  offset="1" style="stop-color:#42E8E0"/>
			</linearGradient>
			<path class="st23" d="M232.57,276.4l-59.07-34.1c-3.07-1.77-6.85-1.77-9.93-0.01l-59.16,34.08c-0.47,0.27-0.7,0.74-0.7,1.21
				v20.04c0,0.47,0.23,0.94,0.7,1.21l59.65,34.44c2.71,1.56,6.05,1.56,8.76,0l59.74-34.41c0.47-0.27,0.7-0.74,0.7-1.21v-20.04l0,0
				C233.27,277.14,233.03,276.67,232.57,276.4z"/>
			<g class="st18">
				<linearGradient id="SVGID_19_" gradientUnits="userSpaceOnUse" x1="103.7123" y1="277.6824" x2="233.2653" y2="277.6824">
					<stop  offset="0" style="stop-color:#5761D7"/>
					<stop  offset="0.0726" style="stop-color:#5472D8"/>
					<stop  offset="0.2791" style="stop-color:#4E9CDB"/>
					<stop  offset="0.4801" style="stop-color:#49BDDD"/>
					<stop  offset="0.6715" style="stop-color:#45D5DF"/>
					<stop  offset="0.8493" style="stop-color:#43E3E0"/>
					<stop  offset="1" style="stop-color:#42E8E0"/>
				</linearGradient>
				<path class="st24" d="M173.5,242.3c-3.07-1.77-6.85-1.77-9.93-0.01l-59.16,34.08c-0.93,0.54-0.93,1.88,0,2.42l59.65,34.44
					c2.71,1.56,6.05,1.56,8.76,0l59.74-34.41c0.93-0.54,0.93-1.88,0-2.42L173.5,242.3z"/>
			</g>
			<g class="st25">
				<path class="st26" d="M170.61,261.83c-1.3-0.75-2.91-0.75-4.21,0L139.9,277.1c-0.42,0.24-0.42,0.84,0,1.08l26.62,15.37
					c1.21,0.7,2.7,0.7,3.91,0l26.66-15.35c0.42-0.24,0.42-0.84,0-1.08L170.61,261.83z"/>
			</g>
			<path class="st26" d="M139.9,278.05l26.51-15.27c1.3-0.75,2.91-0.75,4.21,0l26.47,15.28c0.03,0.02,0.04,0.04,0.06,0.06
				c0.34-0.27,0.33-0.79-0.06-1.02l-26.47-15.28c-1.3-0.75-2.91-0.75-4.21,0L139.9,277.1c-0.39,0.22-0.4,0.75-0.06,1.02
				C139.86,278.1,139.87,278.07,139.9,278.05z"/>
			<linearGradient id="SVGID_20_" gradientUnits="userSpaceOnUse" x1="103.713" y1="295.6447" x2="233.2645" y2="295.6447">
				<stop  offset="0" style="stop-color:#5761D7"/>
				<stop  offset="0.0726" style="stop-color:#5472D8"/>
				<stop  offset="0.2791" style="stop-color:#4E9CDB"/>
				<stop  offset="0.4801" style="stop-color:#49BDDD"/>
				<stop  offset="0.6715" style="stop-color:#45D5DF"/>
				<stop  offset="0.8493" style="stop-color:#43E3E0"/>
				<stop  offset="1" style="stop-color:#42E8E0"/>
			</linearGradient>
			<path class="st27" d="M232.57,277.44l-59.74,34.41c-2.71,1.56-6.05,1.56-8.76,0l-59.65-34.44c-0.23-0.13-0.4-0.32-0.52-0.52
				c-0.36,0.63-0.18,1.49,0.52,1.9l59.65,34.44c2.71,1.56,6.05,1.56,8.76,0l59.74-34.41c0.7-0.41,0.87-1.27,0.52-1.9
				C232.97,277.13,232.8,277.31,232.57,277.44z"/>
		</g>
		<g>
			<g class="st18">
				<linearGradient id="SVGID_21_" gradientUnits="userSpaceOnUse" x1="339.3951" y1="307.5806" x2="468.9482" y2="307.5806">
					<stop  offset="0" style="stop-color:#5761D7"/>
					<stop  offset="0.0726" style="stop-color:#5472D8"/>
					<stop  offset="0.2791" style="stop-color:#4E9CDB"/>
					<stop  offset="0.4801" style="stop-color:#49BDDD"/>
					<stop  offset="0.6715" style="stop-color:#45D5DF"/>
					<stop  offset="0.8493" style="stop-color:#43E3E0"/>
					<stop  offset="1" style="stop-color:#42E8E0"/>
				</linearGradient>
				<path class="st28" d="M409.18,272.19c-3.07-1.77-6.85-1.77-9.93-0.01l-59.16,34.08c-0.93,0.54-0.93,1.88,0,2.42l59.65,34.44
					c2.71,1.56,6.05,1.56,8.76,0l59.74-34.41c0.93-0.54,0.93-1.88,0-2.42L409.18,272.19z"/>
			</g>
			<g class="st18">
				<linearGradient id="SVGID_22_" gradientUnits="userSpaceOnUse" x1="339.3951" y1="297.6146" x2="468.9482" y2="297.6146">
					<stop  offset="0" style="stop-color:#5761D7"/>
					<stop  offset="0.0726" style="stop-color:#5472D8"/>
					<stop  offset="0.2791" style="stop-color:#4E9CDB"/>
					<stop  offset="0.4801" style="stop-color:#49BDDD"/>
					<stop  offset="0.6715" style="stop-color:#45D5DF"/>
					<stop  offset="0.8493" style="stop-color:#43E3E0"/>
					<stop  offset="1" style="stop-color:#42E8E0"/>
				</linearGradient>
				<path class="st29" d="M409.18,262.23c-3.07-1.77-6.85-1.77-9.93,0l-59.16,34.08c-0.93,0.54-0.93,1.88,0,2.42l59.65,34.44
					c2.71,1.56,6.05,1.56,8.76,0l59.74-34.41c0.93-0.54,0.93-1.88,0-2.42L409.18,262.23z"/>
			</g>
			<g class="st18">
				<linearGradient id="SVGID_23_" gradientUnits="userSpaceOnUse" x1="339.3951" y1="287.6485" x2="468.9482" y2="287.6485">
					<stop  offset="0" style="stop-color:#5761D7"/>
					<stop  offset="0.0726" style="stop-color:#5472D8"/>
					<stop  offset="0.2791" style="stop-color:#4E9CDB"/>
					<stop  offset="0.4801" style="stop-color:#49BDDD"/>
					<stop  offset="0.6715" style="stop-color:#45D5DF"/>
					<stop  offset="0.8493" style="stop-color:#43E3E0"/>
					<stop  offset="1" style="stop-color:#42E8E0"/>
				</linearGradient>
				<path class="st30" d="M409.18,252.26c-3.07-1.77-6.85-1.77-9.93-0.01l-59.16,34.08c-0.93,0.54-0.93,1.88,0,2.42l59.65,34.44
					c2.71,1.56,6.05,1.56,8.76,0l59.74-34.41c0.93-0.54,0.93-1.88,0-2.42L409.18,252.26z"/>
			</g>
			<g class="st18">
				<linearGradient id="SVGID_24_" gradientUnits="userSpaceOnUse" x1="339.3951" y1="277.6824" x2="468.9482" y2="277.6824">
					<stop  offset="0" style="stop-color:#5761D7"/>
					<stop  offset="0.0726" style="stop-color:#5472D8"/>
					<stop  offset="0.2791" style="stop-color:#4E9CDB"/>
					<stop  offset="0.4801" style="stop-color:#49BDDD"/>
					<stop  offset="0.6715" style="stop-color:#45D5DF"/>
					<stop  offset="0.8493" style="stop-color:#43E3E0"/>
					<stop  offset="1" style="stop-color:#42E8E0"/>
				</linearGradient>
				<path class="st31" d="M409.18,242.3c-3.07-1.77-6.85-1.77-9.93-0.01l-59.16,34.08c-0.93,0.54-0.93,1.88,0,2.42l59.65,34.44
					c2.71,1.56,6.05,1.56,8.76,0l59.74-34.41c0.93-0.54,0.93-1.88,0-2.42L409.18,242.3z"/>
			</g>
			<linearGradient id="SVGID_25_" gradientUnits="userSpaceOnUse" x1="339.3951" y1="287.7012" x2="468.9482" y2="287.7012">
				<stop  offset="0" style="stop-color:#5761D7"/>
				<stop  offset="0.0726" style="stop-color:#5472D8"/>
				<stop  offset="0.2791" style="stop-color:#4E9CDB"/>
				<stop  offset="0.4801" style="stop-color:#49BDDD"/>
				<stop  offset="0.6715" style="stop-color:#45D5DF"/>
				<stop  offset="0.8493" style="stop-color:#43E3E0"/>
				<stop  offset="1" style="stop-color:#42E8E0"/>
			</linearGradient>
			<path class="st32" d="M468.25,276.4l-59.07-34.1c-3.07-1.77-6.85-1.77-9.93-0.01l-59.16,34.08c-0.47,0.27-0.7,0.74-0.7,1.21
				v20.04c0,0.47,0.23,0.94,0.7,1.21l59.65,34.44c2.71,1.56,6.05,1.56,8.76,0l59.74-34.41c0.47-0.27,0.7-0.74,0.7-1.21v-20.04l0,0
				C468.95,277.14,468.72,276.67,468.25,276.4z"/>
			<g class="st18">
				<linearGradient id="SVGID_26_" gradientUnits="userSpaceOnUse" x1="339.3951" y1="277.6824" x2="468.9482" y2="277.6824">
					<stop  offset="0" style="stop-color:#5761D7"/>
					<stop  offset="0.0726" style="stop-color:#5472D8"/>
					<stop  offset="0.2791" style="stop-color:#4E9CDB"/>
					<stop  offset="0.4801" style="stop-color:#49BDDD"/>
					<stop  offset="0.6715" style="stop-color:#45D5DF"/>
					<stop  offset="0.8493" style="stop-color:#43E3E0"/>
					<stop  offset="1" style="stop-color:#42E8E0"/>
				</linearGradient>
				<path class="st33" d="M409.18,242.3c-3.07-1.77-6.85-1.77-9.93-0.01l-59.16,34.08c-0.93,0.54-0.93,1.88,0,2.42l59.65,34.44
					c2.71,1.56,6.05,1.56,8.76,0l59.74-34.41c0.93-0.54,0.93-1.88,0-2.42L409.18,242.3z"/>
			</g>
			<g class="st25">
				<path class="st26" d="M406.3,261.83c-1.3-0.75-2.91-0.75-4.21,0l-26.51,15.27c-0.42,0.24-0.42,0.84,0,1.08l26.62,15.37
					c1.21,0.7,2.7,0.7,3.91,0l26.66-15.35c0.42-0.24,0.42-0.84,0-1.08L406.3,261.83z"/>
			</g>
			<path class="st26" d="M375.58,278.05l26.51-15.27c1.3-0.75,2.91-0.75,4.21,0l26.47,15.28c0.03,0.02,0.04,0.04,0.06,0.06
				c0.34-0.27,0.33-0.79-0.06-1.02l-26.47-15.28c-1.3-0.75-2.91-0.75-4.21,0l-26.51,15.27c-0.39,0.22-0.4,0.75-0.06,1.02
				C375.54,278.1,375.55,278.07,375.58,278.05z"/>
			<linearGradient id="SVGID_27_" gradientUnits="userSpaceOnUse" x1="339.396" y1="295.6447" x2="468.9474" y2="295.6447">
				<stop  offset="0" style="stop-color:#5761D7"/>
				<stop  offset="0.0726" style="stop-color:#5472D8"/>
				<stop  offset="0.2791" style="stop-color:#4E9CDB"/>
				<stop  offset="0.4801" style="stop-color:#49BDDD"/>
				<stop  offset="0.6715" style="stop-color:#45D5DF"/>
				<stop  offset="0.8493" style="stop-color:#43E3E0"/>
				<stop  offset="1" style="stop-color:#42E8E0"/>
			</linearGradient>
			<path class="st34" d="M468.25,277.44l-59.74,34.41c-2.71,1.56-6.05,1.56-8.76,0l-59.65-34.44c-0.23-0.13-0.4-0.32-0.52-0.52
				c-0.36,0.63-0.18,1.49,0.52,1.9l59.65,34.44c2.71,1.56,6.05,1.56,8.76,0l59.74-34.41c0.7-0.41,0.87-1.27,0.52-1.9
				C468.65,277.13,468.48,277.31,468.25,277.44z"/>
		</g>
		<g>
			<path class="st35" d="M452.9,194.09v-35.43c-0.82-12.08-5.6-23.59-13.62-34.11v35.43C447.31,170.5,452.08,182.01,452.9,194.09
				L452.9,194.09z M435.18,155v-35.43c-2.83-3.19-5.96-6.27-9.38-9.24v35.43C429.22,148.72,432.35,151.81,435.18,155L435.18,155z
				 M420,141.03V105.6c-3.72-2.84-7.71-5.56-11.96-8.14v35.43C412.28,135.48,416.28,138.19,420,141.03L420,141.03z M400.01,138.81
				V82.43c32.64,17.32,53.02,42.09,53.02,69.49v56.38C453.03,180.89,432.66,156.12,400.01,138.81L400.01,138.81z"/>
			<path class="st35" d="M340.31,111.74v-10.18c-2.49-0.48-5.01-0.92-7.55-1.33v10.18C335.31,110.82,337.82,111.26,340.31,111.74
				L340.31,111.74z M326.73,99.33v-9.01c-2.58-0.36-5.19-0.68-7.81-0.96v9.01C321.54,98.65,324.15,98.97,326.73,99.33L326.73,99.33z
				 M353.39,104.43V92.14c-2.39-0.59-4.81-1.15-7.26-1.68v12.28C348.58,103.27,351,103.83,353.39,104.43L353.39,104.43z
				 M312.68,97.76V79.62c-2.66-0.23-5.34-0.42-8.04-0.58v18.13C307.34,97.34,310.02,97.53,312.68,97.76L312.68,97.76z M283.51,96.74
				V78.6c-2.73,0.04-5.45,0.12-8.15,0.24v18.13C278.05,96.86,280.77,96.78,283.51,96.74L283.51,96.74z M269.01,97.32V74.51
				c-2.67,0.18-5.32,0.39-7.96,0.64v22.81C263.69,97.71,266.34,97.5,269.01,97.32L269.01,97.32z M298.23,96.88V70.8
				c-2.44-0.09-4.9-0.14-7.37-0.17c-0.29,0-0.58-0.01-0.88-0.01v26.09c0.29,0,0.58,0,0.88,0.01
				C293.33,96.74,295.79,96.8,298.23,96.88L298.23,96.88z M254.88,98.61V65.97c-2.6,0.3-5.18,0.64-7.74,1.02v32.64
				C249.7,99.25,252.28,98.91,254.88,98.61L254.88,98.61z M230.53,63.18c18.76-4,39.12-6.09,60.34-5.88
				c28.33,0.28,54.87,4.65,77.95,12.09v56.38c-23.08-7.45-49.62-11.81-77.95-12.09c-21.22-0.21-41.58,1.88-60.34,5.88V63.18
				L230.53,63.18z"/>
			<path class="st35" d="M134.61,139.65V128.3c-3.37,4.85-6.07,9.91-8.01,15.12v33.62c1.95-5.22,4.64-10.27,8.01-15.12v-11.35
				c0.98-1.41,2.01-2.8,3.1-4.17v6.12c2.07-2.6,4.33-5.14,6.78-7.61v-6.12c10.63-10.7,24.8-20.09,41.57-27.65v-10.92
				c-2.98,1.35-5.88,2.75-8.7,4.21c-1.41,0.73-2.79,1.47-4.16,2.23c-10.77,5.98-20.12,12.79-27.75,20.26
				c-0.32,0.32-0.64,0.63-0.96,0.95v-6.12c-2.45,2.47-4.72,5-6.78,7.61v6.12C136.62,136.85,135.59,138.24,134.61,139.65
				L134.61,139.65z M124.4,139.29c6.41-27.51,33.36-51.2,71.59-65.95v56.38c-38.23,14.75-65.18,38.44-71.59,65.95V139.29
				L124.4,139.29z"/>
			<path class="st36" d="M144.49,127.87c0.32-0.32,0.64-0.64,0.96-0.95v10.92c5.7-5.58,12.36-10.79,19.85-15.57
				c2.54-1.62,5.17-3.18,7.9-4.69v-10.92c1.36-0.76,2.75-1.5,4.16-2.23v10.92c2.81-1.46,5.71-2.86,8.7-4.21v-10.92v10.92
				c-16.77,7.56-30.93,16.95-41.57,27.65V127.87L144.49,127.87z M134.61,139.65c0.98-1.41,2.01-2.8,3.1-4.17v10.92
				c-1.09,1.37-2.12,2.76-3.1,4.17V139.65L134.61,139.65z"/>
			<path class="st37" d="M177.36,104.43c2.81-1.46,5.71-2.86,8.7-4.21v10.92c-2.98,1.35-5.88,2.75-8.7,4.21V104.43L177.36,104.43z"
				/>
			<path class="st37" d="M145.45,126.92c5.7-5.58,12.36-10.79,19.85-15.57v10.92c-7.49,4.77-14.16,9.99-19.85,15.57V126.92
				L145.45,126.92z"/>
			<path class="st38" d="M165.31,111.35c2.54-1.62,5.17-3.18,7.9-4.69v10.92c-2.72,1.51-5.36,3.08-7.9,4.69V111.35L165.31,111.35z"
				/>
			<path class="st36" d="M126.6,143.42c1.95-5.22,4.64-10.27,8.01-15.12v11.35c-3.37,4.85-6.07,9.91-8.01,15.12v10.92
				c1.95-5.22,4.64-10.27,8.01-15.12v11.35c-3.37,4.85-6.07,9.91-8.01,15.12V143.42L126.6,143.42z"/>
			<path class="st37" d="M126.6,154.77c1.95-5.22,4.64-10.27,8.01-15.12v10.92c-3.37,4.85-6.07,9.91-8.01,15.12V154.77L126.6,154.77
				z"/>
			<path class="st36" d="M137.71,146.4c2.07-2.6,4.33-5.14,6.78-7.61v6.12c-2.45,2.47-4.72,5-6.78,7.61V146.4L137.71,146.4z
				 M137.71,129.36c2.07-2.6,4.33-5.14,6.78-7.61v6.12c-2.45,2.47-4.72,5-6.78,7.61V129.36L137.71,129.36z"/>
			<path class="st37" d="M137.71,135.48c2.07-2.6,4.33-5.14,6.78-7.61v10.92c-2.45,2.47-4.72,5-6.78,7.61V135.48L137.71,135.48z"/>
			<path class="st36" d="M439.28,124.54c8.02,10.52,12.8,22.03,13.62,34.11v35.43c-0.82-12.08-5.6-23.59-13.62-34.11V124.54
				L439.28,124.54z"/>
			<path class="st26" d="M425.8,110.32c3.42,2.97,6.55,6.05,9.38,9.24V155c-2.83-3.19-5.96-6.27-9.38-9.24V110.32L425.8,110.32z"/>
			<path class="st36" d="M408.04,97.46c4.24,2.58,8.24,5.3,11.96,8.14v35.43c-3.72-2.84-7.71-5.56-11.96-8.14V97.46L408.04,97.46z"
				/>
			<path class="st36" d="M346.13,90.46c2.45,0.53,4.87,1.09,7.26,1.68v12.28c-2.39-0.59-4.81-1.15-7.26-1.68V90.46L346.13,90.46z"/>
			<path class="st36" d="M332.76,100.23c2.54,0.41,5.06,0.85,7.55,1.33v10.18c-2.49-0.48-5.01-0.92-7.55-1.33V100.23L332.76,100.23z
				"/>
			<path class="st36" d="M318.92,89.36c2.63,0.29,5.23,0.61,7.81,0.96v9.01c-2.58-0.36-5.19-0.68-7.81-0.96V89.36L318.92,89.36z"/>
			<path class="st36" d="M304.64,79.05c2.7,0.16,5.38,0.35,8.04,0.58v18.13c-2.66-0.23-5.34-0.42-8.04-0.58V79.05L304.64,79.05z"/>
			<path class="st36" d="M289.99,70.62c0.29,0,0.58,0,0.88,0.01c2.47,0.02,4.93,0.08,7.37,0.17v26.09c-2.44-0.09-4.9-0.14-7.37-0.17
				c-0.29,0-0.58-0.01-0.88-0.01V70.62L289.99,70.62z"/>
			<path class="st26" d="M275.35,78.84c2.7-0.12,5.42-0.2,8.15-0.24v18.13c-2.73,0.04-5.45,0.12-8.15,0.24V78.84L275.35,78.84z"/>
			<path class="st36" d="M261.06,75.15c2.63-0.25,5.29-0.46,7.96-0.64v22.81c-2.67,0.18-5.32,0.39-7.96,0.64V75.15L261.06,75.15z"/>
			<path class="st26" d="M247.15,66.99c2.56-0.37,5.14-0.71,7.74-1.02v32.64c-2.6,0.3-5.18,0.64-7.74,1.02V66.99L247.15,66.99z"/>
		</g>
		<g>
			<g>
				<g>
					<g class="st18">
						
							<linearGradient id="SVGID_28_" gradientUnits="userSpaceOnUse" x1="172.6927" y1="378.7296" x2="294.4942" y2="378.7296" gradientTransform="matrix(-1 0 0 1 519.6742 0)">
							<stop  offset="0" style="stop-color:#5761D7"/>
							<stop  offset="0.0726" style="stop-color:#5472D8"/>
							<stop  offset="0.2791" style="stop-color:#4E9CDB"/>
							<stop  offset="0.4801" style="stop-color:#49BDDD"/>
							<stop  offset="0.6715" style="stop-color:#45D5DF"/>
							<stop  offset="0.8493" style="stop-color:#43E3E0"/>
							<stop  offset="1" style="stop-color:#42E8E0"/>
						</linearGradient>
						<path class="st39" d="M281.37,345.46c2.89-1.67,6.44-1.67,9.33,0l55.62,32.04c0.88,0.51,0.88,1.77,0,2.27l-56.08,32.38
							c-2.55,1.47-5.69,1.47-8.24,0l-56.17-32.35c-0.88-0.51-0.88-1.77,0-2.27L281.37,345.46z"/>
					</g>
					<g class="st18">
						
							<linearGradient id="SVGID_29_" gradientUnits="userSpaceOnUse" x1="172.6927" y1="369.3599" x2="294.4942" y2="369.3599" gradientTransform="matrix(-1 0 0 1 519.6742 0)">
							<stop  offset="0" style="stop-color:#5761D7"/>
							<stop  offset="0.0726" style="stop-color:#5472D8"/>
							<stop  offset="0.2791" style="stop-color:#4E9CDB"/>
							<stop  offset="0.4801" style="stop-color:#49BDDD"/>
							<stop  offset="0.6715" style="stop-color:#45D5DF"/>
							<stop  offset="0.8493" style="stop-color:#43E3E0"/>
							<stop  offset="1" style="stop-color:#42E8E0"/>
						</linearGradient>
						<path class="st40" d="M281.37,336.09c2.89-1.67,6.44-1.67,9.33,0l55.62,32.04c0.88,0.51,0.88,1.77,0,2.27l-56.08,32.38
							c-2.55,1.47-5.69,1.47-8.24,0l-56.17-32.35c-0.88-0.51-0.88-1.77,0-2.27L281.37,336.09z"/>
					</g>
					<g class="st18">
						
							<linearGradient id="SVGID_30_" gradientUnits="userSpaceOnUse" x1="172.6927" y1="359.9901" x2="294.4942" y2="359.9901" gradientTransform="matrix(-1 0 0 1 519.6742 0)">
							<stop  offset="0" style="stop-color:#5761D7"/>
							<stop  offset="0.0726" style="stop-color:#5472D8"/>
							<stop  offset="0.2791" style="stop-color:#4E9CDB"/>
							<stop  offset="0.4801" style="stop-color:#49BDDD"/>
							<stop  offset="0.6715" style="stop-color:#45D5DF"/>
							<stop  offset="0.8493" style="stop-color:#43E3E0"/>
							<stop  offset="1" style="stop-color:#42E8E0"/>
						</linearGradient>
						<path class="st41" d="M281.37,326.72c2.89-1.67,6.44-1.67,9.33,0l55.62,32.04c0.88,0.51,0.88,1.77,0,2.27l-56.08,32.38
							c-2.55,1.47-5.69,1.47-8.24,0l-56.17-32.35c-0.88-0.51-0.88-1.77,0-2.27L281.37,326.72z"/>
					</g>
					<g class="st18">
						
							<linearGradient id="SVGID_31_" gradientUnits="userSpaceOnUse" x1="172.6927" y1="350.6203" x2="294.4942" y2="350.6203" gradientTransform="matrix(-1 0 0 1 519.6742 0)">
							<stop  offset="0" style="stop-color:#5761D7"/>
							<stop  offset="0.0726" style="stop-color:#5472D8"/>
							<stop  offset="0.2791" style="stop-color:#4E9CDB"/>
							<stop  offset="0.4801" style="stop-color:#49BDDD"/>
							<stop  offset="0.6715" style="stop-color:#45D5DF"/>
							<stop  offset="0.8493" style="stop-color:#43E3E0"/>
							<stop  offset="1" style="stop-color:#42E8E0"/>
						</linearGradient>
						<path class="st42" d="M281.37,317.35c2.89-1.67,6.44-1.67,9.33,0l55.62,32.04c0.88,0.51,0.88,1.77,0,2.27l-56.08,32.38
							c-2.55,1.47-5.69,1.47-8.24,0l-56.17-32.35c-0.88-0.51-0.88-1.77,0-2.27L281.37,317.35z"/>
					</g>
					
						<linearGradient id="SVGID_32_" gradientUnits="userSpaceOnUse" x1="172.6927" y1="364.675" x2="294.4942" y2="364.675" gradientTransform="matrix(-1 0 0 1 519.6742 0)">
						<stop  offset="0" style="stop-color:#5761D7"/>
						<stop  offset="0.0726" style="stop-color:#5472D8"/>
						<stop  offset="0.2791" style="stop-color:#4E9CDB"/>
						<stop  offset="0.4801" style="stop-color:#49BDDD"/>
						<stop  offset="0.6715" style="stop-color:#45D5DF"/>
						<stop  offset="0.8493" style="stop-color:#43E3E0"/>
						<stop  offset="1" style="stop-color:#42E8E0"/>
					</linearGradient>
					<path class="st43" d="M225.84,349.41l55.54-32.06c2.89-1.67,6.44-1.67,9.33,0l55.62,32.04c0.44,0.25,0.66,0.7,0.66,1.14v28.11
						c0,0.44-0.22,0.88-0.66,1.14l-56.08,32.38c-2.55,1.47-5.69,1.47-8.24,0l-56.17-32.35c-0.44-0.25-0.66-0.7-0.66-1.14v-28.11l0,0
						C225.18,350.11,225.4,349.67,225.84,349.41z"/>
				</g>
				<g>
					<g class="st18">
						
							<linearGradient id="SVGID_33_" gradientUnits="userSpaceOnUse" x1="159.7479" y1="334.7169" x2="307.4389" y2="334.7169" gradientTransform="matrix(-1 0 0 1 519.6742 0)">
							<stop  offset="0" style="stop-color:#5761D7"/>
							<stop  offset="0.0726" style="stop-color:#5472D8"/>
							<stop  offset="0.2791" style="stop-color:#4E9CDB"/>
							<stop  offset="0.4801" style="stop-color:#49BDDD"/>
							<stop  offset="0.6715" style="stop-color:#45D5DF"/>
							<stop  offset="0.8493" style="stop-color:#43E3E0"/>
							<stop  offset="1" style="stop-color:#42E8E0"/>
						</linearGradient>
						<path class="st44" d="M280.37,294.38c3.5-2.02,7.81-2.02,11.32-0.01l67.44,38.85c1.06,0.61,1.06,2.15,0,2.76l-68,39.26
							c-3.09,1.78-6.9,1.78-9.99,0l-68.11-39.23c-1.06-0.61-1.06-2.15,0-2.76L280.37,294.38z"/>
					</g>
					<g class="st18">
						
							<linearGradient id="SVGID_34_" gradientUnits="userSpaceOnUse" x1="159.7479" y1="323.3555" x2="307.4389" y2="323.3555" gradientTransform="matrix(-1 0 0 1 519.6742 0)">
							<stop  offset="0" style="stop-color:#5761D7"/>
							<stop  offset="0.0726" style="stop-color:#5472D8"/>
							<stop  offset="0.2791" style="stop-color:#4E9CDB"/>
							<stop  offset="0.4801" style="stop-color:#49BDDD"/>
							<stop  offset="0.6715" style="stop-color:#45D5DF"/>
							<stop  offset="0.8493" style="stop-color:#43E3E0"/>
							<stop  offset="1" style="stop-color:#42E8E0"/>
						</linearGradient>
						<path class="st45" d="M280.37,283.01c3.5-2.02,7.81-2.02,11.32-0.01l67.44,38.85c1.06,0.61,1.06,2.15,0,2.76l-68,39.26
							c-3.09,1.78-6.9,1.78-9.99,0l-68.11-39.23c-1.06-0.61-1.06-2.15,0-2.76L280.37,283.01z"/>
					</g>
					<g class="st18">
						
							<linearGradient id="SVGID_35_" gradientUnits="userSpaceOnUse" x1="159.7479" y1="311.9941" x2="307.4389" y2="311.9941" gradientTransform="matrix(-1 0 0 1 519.6742 0)">
							<stop  offset="0" style="stop-color:#5761D7"/>
							<stop  offset="0.0726" style="stop-color:#5472D8"/>
							<stop  offset="0.2791" style="stop-color:#4E9CDB"/>
							<stop  offset="0.4801" style="stop-color:#49BDDD"/>
							<stop  offset="0.6715" style="stop-color:#45D5DF"/>
							<stop  offset="0.8493" style="stop-color:#43E3E0"/>
							<stop  offset="1" style="stop-color:#42E8E0"/>
						</linearGradient>
						<path class="st46" d="M280.37,271.65c3.5-2.02,7.81-2.02,11.32-0.01l67.44,38.85c1.06,0.61,1.06,2.15,0,2.76l-68,39.26
							c-3.09,1.78-6.9,1.78-9.99,0l-68.11-39.23c-1.06-0.61-1.06-2.15,0-2.76L280.37,271.65z"/>
					</g>
					<g class="st18">
						
							<linearGradient id="SVGID_36_" gradientUnits="userSpaceOnUse" x1="159.7479" y1="300.6328" x2="307.4389" y2="300.6328" gradientTransform="matrix(-1 0 0 1 519.6742 0)">
							<stop  offset="0" style="stop-color:#5761D7"/>
							<stop  offset="0.0726" style="stop-color:#5472D8"/>
							<stop  offset="0.2791" style="stop-color:#4E9CDB"/>
							<stop  offset="0.4801" style="stop-color:#49BDDD"/>
							<stop  offset="0.6715" style="stop-color:#45D5DF"/>
							<stop  offset="0.8493" style="stop-color:#43E3E0"/>
							<stop  offset="1" style="stop-color:#42E8E0"/>
						</linearGradient>
						<path class="st47" d="M280.37,260.29c3.5-2.02,7.81-2.02,11.32-0.01l67.44,38.85c1.06,0.61,1.06,2.15,0,2.76l-68,39.26
							c-3.09,1.78-6.9,1.78-9.99,0l-68.11-39.23c-1.06-0.61-1.06-2.15,0-2.76L280.37,260.29z"/>
					</g>
					
						<linearGradient id="SVGID_37_" gradientUnits="userSpaceOnUse" x1="159.7479" y1="317.6748" x2="307.439" y2="317.6748" gradientTransform="matrix(-1 0 0 1 519.6742 0)">
						<stop  offset="0" style="stop-color:#5761D7"/>
						<stop  offset="0.0726" style="stop-color:#5472D8"/>
						<stop  offset="0.2791" style="stop-color:#4E9CDB"/>
						<stop  offset="0.4801" style="stop-color:#49BDDD"/>
						<stop  offset="0.6715" style="stop-color:#45D5DF"/>
						<stop  offset="0.8493" style="stop-color:#43E3E0"/>
						<stop  offset="1" style="stop-color:#42E8E0"/>
					</linearGradient>
					<path class="st48" d="M213.03,299.17l67.34-38.88c3.5-2.02,7.81-2.02,11.32-0.01l67.44,38.85c0.53,0.31,0.8,0.84,0.8,1.38
						v34.08c0,0.54-0.27,1.07-0.8,1.38l-68,39.26c-3.09,1.78-6.9,1.78-9.99,0l-68.11-39.23c-0.53-0.31-0.8-0.84-0.8-1.38v-34.08l0,0
						C212.24,300.01,212.5,299.48,213.03,299.17z"/>
					<g class="st18">
						
							<linearGradient id="SVGID_38_" gradientUnits="userSpaceOnUse" x1="159.7479" y1="300.6328" x2="307.4389" y2="300.6328" gradientTransform="matrix(-1 0 0 1 519.6742 0)">
							<stop  offset="0" style="stop-color:#5761D7"/>
							<stop  offset="0.0726" style="stop-color:#5472D8"/>
							<stop  offset="0.2791" style="stop-color:#4E9CDB"/>
							<stop  offset="0.4801" style="stop-color:#49BDDD"/>
							<stop  offset="0.6715" style="stop-color:#45D5DF"/>
							<stop  offset="0.8493" style="stop-color:#43E3E0"/>
							<stop  offset="1" style="stop-color:#42E8E0"/>
						</linearGradient>
						<path class="st49" d="M280.37,260.29c3.5-2.02,7.81-2.02,11.32-0.01l67.44,38.85c1.06,0.61,1.06,2.15,0,2.76l-68,39.26
							c-3.09,1.78-6.9,1.78-9.99,0l-68.11-39.23c-1.06-0.61-1.06-2.15,0-2.76L280.37,260.29z"/>
					</g>
					
						<linearGradient id="SVGID_39_" gradientUnits="userSpaceOnUse" x1="159.7488" y1="321.1098" x2="307.438" y2="321.1098" gradientTransform="matrix(-1 0 0 1 519.6742 0)">
						<stop  offset="0" style="stop-color:#5761D7"/>
						<stop  offset="0.0726" style="stop-color:#5472D8"/>
						<stop  offset="0.2791" style="stop-color:#4E9CDB"/>
						<stop  offset="0.4801" style="stop-color:#49BDDD"/>
						<stop  offset="0.6715" style="stop-color:#45D5DF"/>
						<stop  offset="0.8493" style="stop-color:#43E3E0"/>
						<stop  offset="1" style="stop-color:#42E8E0"/>
					</linearGradient>
					<path class="st50" d="M213.03,300.36l68.11,39.23c3.09,1.78,6.9,1.78,9.99,0l68-39.26c0.26-0.15,0.46-0.36,0.59-0.59
						c0.41,0.72,0.21,1.7-0.59,2.16l-68,39.26c-3.09,1.78-6.9,1.78-9.99,0l-68.11-39.23c-0.8-0.46-1-1.44-0.59-2.16
						C212.57,300,212.77,300.21,213.03,300.36z"/>
				</g>
			</g>
			<ellipse class="st51" cx="286.08" cy="300.63" rx="37.13" ry="21.44"/>
			<g>
				<path class="st52" d="M300.21,282.46c0,0,0.9,0.94,1.84,2.05c0.94,1.11,3.57,2.65,4.68,3.34c1.11,0.69,6.17,4.53,7.23,8.31
					c1.06,3.78-2.56,4.28-6.27,3.63c-3.7-0.66-7.17-4.07-8.17-5.31s-4.51-4.03-9.06-6.39c-4.55-2.35-1.8-5.52-1.8-5.52
					L300.21,282.46z"/>
				<path class="st52" d="M266.46,293.69c0,0-0.75,1.7-0.96,3.89c-0.21,2.19-0.52,6.93-0.63,8.32c-0.11,1.39-0.16,4.78,2.28,8.03
					c2.44,3.25,3.7,4.53,6.95,3.26c3.25-1.28,3.17-6.73,2.6-9.53c-0.57-2.8-1.11-9.07-1.05-9.73c0.06-0.66-0.19-1.08-0.19-1.08
					L266.46,293.69z"/>
				<path class="st53" d="M311.41,218.19c0,0-0.68,24.98-6.51,38.24c0,0-4.17,11.68-4.72,25.57c0,0,0.96,2.39-0.4,4.34
					c-1.37,1.94-9.91,3.72-11.32-2.66c-1.41-6.39-0.87-18.34,0.68-23.32c1.55-4.98-0.55-18.72-0.55-18.72s-2.34,1.49-5.4,11.36
					c-3.06,9.87-5.31,13.63-6.37,16.36c-1.05,2.73-2.02,19.45-1.35,27.62c0,0-6.92,0.98-8.92-2.33c-2-3.31-2.67-20.42-2.16-25.88
					c0.51-5.46,2.79-22.94,2.48-28.34c-0.31-5.41-1.44-9.8-0.2-15.2c1.24-5.4,37.76-17.4,37.76-17.4L311.41,218.19z"/>
				<path class="st52" d="M266.86,240.42c-0.31-5.41-1.44-9.8-0.2-15.2c0.47-2.03,5.92-4.99,12.54-7.9
					c11.18-1.02,25.35-2.2,26.33-2.06c0.88,0.13,3.19,1.01,5.11,1.78l0.78,1.16c0,0-0.04,1.52-0.19,4
					c-2.61,0.78-7.62-0.03-7.62-0.03c-0.71,1.75-5.06,7.98-10.48,10.67s-21.27,1.77-22.18,2.79c-0.91,1.02-1.09,14.7-0.99,16.44
					s-1.49,12.69-2.97,22.36c-1.45,9.52,0.76,21.1,0.83,21.47c-0.51-0.33-0.96-0.73-1.27-1.25c-2-3.31-2.67-20.42-2.16-25.88
					C264.89,263.3,267.17,245.82,266.86,240.42z"/>
				<path class="st54" d="M299.19,136.49c0,0,8.1,1.85,10.83,2.49c0.45,0.11,0.82,0.42,0.99,0.86c0.79,1.99,2.76,8.18,1.27,17.22
					c-1.83,11.11-1.25,18.58-1.25,18.58l3.75,19.5c0,0,4.71,18.58,4.3,19.08c-0.41,0.51-10.85,8.45-14.11,7.34
					c-3.26-1.12-2.19-2.97-2.19-2.97s-2.64,13.46-14.35,13.33c-11.7-0.13-21.26-0.09-23.25-4.82c-1.99-4.73,0.54-24.61,2.61-32.49
					c2.06-7.87,6.97-23.57,6.97-23.57l-17.14-18.97l14.65-11.19c0,0,3.5-6.5,4.94-7.33c1.44-0.83,2.19-0.13,2.19-0.13L299.19,136.49
					z"/>
				<g>
					
						<linearGradient id="SVGID_40_" gradientUnits="userSpaceOnUse" x1="171.969" y1="261.9342" x2="187.5535" y2="261.9342" gradientTransform="matrix(-0.9983 0.0579 0.0579 0.9983 475.4406 -53.735)">
						<stop  offset="0" style="stop-color:#5761D7"/>
						<stop  offset="0.0726" style="stop-color:#5472D8"/>
						<stop  offset="0.2791" style="stop-color:#4E9CDB"/>
						<stop  offset="0.4801" style="stop-color:#49BDDD"/>
						<stop  offset="0.6715" style="stop-color:#45D5DF"/>
						<stop  offset="0.8493" style="stop-color:#43E3E0"/>
						<stop  offset="1" style="stop-color:#42E8E0"/>
					</linearGradient>
					<path class="st55" d="M304.77,217.27c-0.01,0.68,0.38,1.68,2.49,2.4c2.27,0.78,7.84-2.61,11.49-5.15
						c-1.82,1.51-10.79,8.06-13.78,7.04c-0.65-0.22-1.12-0.47-1.47-0.73C304.17,219.33,304.57,218.04,304.77,217.27z"/>
					
						<linearGradient id="SVGID_41_" gradientUnits="userSpaceOnUse" x1="194.0011" y1="266.9875" x2="226.6056" y2="266.9875" gradientTransform="matrix(-0.9983 0.0579 0.0579 0.9983 475.4406 -53.735)">
						<stop  offset="0" style="stop-color:#5761D7"/>
						<stop  offset="0.0726" style="stop-color:#5472D8"/>
						<stop  offset="0.2791" style="stop-color:#4E9CDB"/>
						<stop  offset="0.4801" style="stop-color:#49BDDD"/>
						<stop  offset="0.6715" style="stop-color:#45D5DF"/>
						<stop  offset="0.8493" style="stop-color:#43E3E0"/>
						<stop  offset="1" style="stop-color:#42E8E0"/>
					</linearGradient>
					<path class="st56" d="M265.27,225.53c2.1,4.99,12.18,4.95,24.53,5.09c3.14,0.03,5.66-0.86,7.68-2.21
						c-2.14,2.04-5.07,3.57-9.05,3.52c-11.7-0.13-21.26-0.09-23.25-4.82c-0.65-1.55-0.82-4.74-0.67-8.6
						C264.49,221.64,264.7,224.18,265.27,225.53z"/>
				</g>
				<path class="st57" d="M277.52,133.41c0,0-2.99,3.62,1.31,8.51c2.65,3.01,7.21,9.49,11.09,16.23c2.43,4.21,4.67,6.45,5.94,10.07
					c0,0,0.18-4.29,0.35-10.93c0.16-6.26,0.25-12.76-0.03-14.4C295.61,139.51,280.83,131.77,277.52,133.41z"/>
				<path class="st58" d="M288.71,144.3c0,0,1.53,0.95,2.06,0.87c0.53-0.08,2.23-1.73,2.23-1.73s4.25-0.08,4.71-1.9
					c0.46-1.82,0.77-3.65,1.2-4.6c0.43-0.95,2.26-5.49,2.28-7.33c0.01-1.84-0.06-5.13,0.74-6.88c0.8-1.74,1.87-19.18-14.97-18.68
					s-11.61,17.97-11.61,17.97s-1.23,0.52-0.49,2.77c0.74,2.25,0.91,2.48,1.29,3.6c0.38,1.12,0.57,1.83,1.64,2.74l0.28,2.07
					c0,0-0.8,3.17,1.29,6.24C281.46,142.54,288.71,144.3,288.71,144.3z"/>
				<path class="st53" d="M310.48,139.18c0,0,1.79,0.27,7.62,14.92c3.25,8.18,8.27,16.64,9.33,22.72
					c1.06,6.08,0.47,12.57-0.73,13.03c-1.16,0.44-22.08,8.27-28.63,10.74c-0.36,0.14-0.76-0.09-0.82-0.47l-1.81-10.11l12.99-5.02
					c0,0,2.47-3.02,4.8-4.16c0,0-2.6-4.8-2.44-6.11c0.17-1.31-0.23-14.86,1.29-20.38C313.59,148.84,310.48,139.18,310.48,139.18z"/>
				<path class="st58" d="M302.87,177.9c0,0,1.79-1.2,2.23-1.37c0.44-0.17,2.83-0.99,3.29-1.19c0.34-0.15,1.73-0.04,2.43,0.03
					c0.25,0.03,0.47,0.17,0.59,0.4c0.55,1.03,2.09,4.01,1.92,5.15c0,0-4.32,2.73-4.81,3.95l-0.69,0.15
					C307.84,185.01,304.94,178.8,302.87,177.9z"/>
				<path class="st53" d="M267.79,194.62c0.5-1.89,1.16-4.24,1.88-6.71l26.3,11.27c0,0-7.87,9.68-21.67,9.06
					c-3.77-0.17-6.52-1.53-8.55-2.7C266.36,201.23,267.1,197.25,267.79,194.62z"/>
				<path class="st53" d="M257.62,152.08c0,0,6.94,0.95,12.54,9.84c5.6,8.88,9.69,19.16,9.69,19.16l0.19,1.16
					c0.5,3.02,3.72,4.75,6.52,3.5c5.92-2.64,14.68-6.64,16.31-7.84c0,0,5.24,2.9,6.67,9.74c1.14,5.46,0.85,5.47,0.85,5.47
					s-23.35,10.9-32.37,10.79c-9.02-0.11-20.46-29.76-21.72-35.89C255.04,161.89,253.65,153.82,257.62,152.08z"/>
				<path class="st59" d="M257.62,152.08c0,0,6.94,0.95,12.54,9.84c5.6,8.88,9.69,19.16,9.69,19.16l0.19,1.16
					c0.5,3.02,3.72,4.75,6.52,3.5c5.92-2.64,14.68-6.64,16.31-7.84c0,0,5.24,2.9,6.67,9.74c1.14,5.46,0.85,5.47,0.85,5.47
					s-23.35,10.9-32.37,10.79c-9.02-0.11-20.46-29.76-21.72-35.89C255.04,161.89,253.65,153.82,257.62,152.08z"/>
				<path class="st54" d="M283.21,187.12c0,0-2.95,2.75-4.23,1.25c-1.28-1.51-0.9-1.68-0.9-1.68s-2.65-0.02-2.97-1.68
					c-0.32-1.66-1.63-0.78-1.7-2.63c-0.07-1.85,2.15-1.47,2.15-1.47L283.21,187.12z"/>
				<path class="st58" d="M286.77,185.65c0,0-0.81-0.75-1.86-1.64c-1.04-0.88-2.73-4.54-3.02-4.86c-0.29-0.32-3.81-3.03-5.51-3.07
					c-1.7-0.05-0.44,1.85-0.05,2.12c0.39,0.27,2.05,1.09,2.05,1.09s1.71,1.43,1.9,1.64c0.19,0.21-4.74-0.34-5.53,0.14
					c-0.78,0.48-0.6,1.74-0.05,2.09c0.55,0.34,0.98,0.33,0.98,0.33s-0.56,1.49,0.93,2.18c1.48,0.69,1.82,0.31,1.82,0.31
					s0.13,2.57,2.57,2.06L286.77,185.65z"/>
				<path class="st60" d="M302.31,113.83c0,0,2.2,7-3.59,5.01c-5.78-1.99-11.02-5.32-12.83-4.05c-1.38,0.97-1.32,3.93-1.21,5.28
					c0.04,0.46-0.08,0.92-0.35,1.3l-1.71,2.49c-0.19,0.28-0.31,0.61-0.33,0.95l-0.12,1.73c-0.03,0.44-0.38,0.78-0.82,0.81
					l-0.39,0.02c-0.44,0.03-0.83-0.28-0.91-0.72l-0.45-2.55c0,0-1.36-3.43-4.24-2.08c0,0-1.92-2.59-1.29-8.11
					c0.64-5.53,3.12-11.28,13.97-12.2C298.89,100.8,302.31,113.83,302.31,113.83z"/>
				<path class="st61" d="M285.73,150.45l1.62-1.26c0,0,1.5,1.25,2.09,2.57c0.59,1.32,0,5.53,0,5.53l0.49,0.85l0.61-1.11l0.51-4.97
					c0,0-0.55-3.67-0.61-3.77c-0.05-0.09-3.13,0.33-3.13,0.33S286.25,149.43,285.73,150.45z"/>
				<path class="st61" d="M293.53,145.51c0,0,1.73,0.12,2.52,0.76c0,0-1.82,0.09-2.11,0.12
					C293.65,146.42,293.53,145.51,293.53,145.51z"/>
				<path class="st53" d="M290.23,145.9l-2.91,2.72c0,0,2.56,1.18,3.27,3.46c0,0,3.17,0.59,3.46-0.56c0.29-1.15-0.01-4.04,0.37-5.32
					C294.79,144.92,290.23,145.9,290.23,145.9z"/>
				<path class="st53" d="M293.93,151.46c0,0,0.54,2.38,1.13,3.37c0.59,0.98,1.2,2.09,1.2,2.09l-0.07,13.97
					c0,0-5.14-10.59-6.25-12.73c0,0,0.17-5.1,0.66-6.07C291.07,151.11,293.93,151.46,293.93,151.46z"/>
				<path class="st62" d="M280.13,130.81c3.38,9.74,12.87,12.63,12.87,12.63s-1.7,1.65-2.23,1.73c-0.53,0.08-2.06-0.87-2.06-0.87
					s-7.25-1.76-9.34-4.84c-2.09-3.08-1.29-6.24-1.29-6.24l-0.28-2.07C279.31,131.64,280.13,130.81,280.13,130.81z"/>
				<path class="st53" d="M272.41,142.21c0,0,1.33,4.6,1.5,4.77c0.17,0.17,3.35-0.19,3.35-0.19l-1.54,2.92
					c0,0,15.98,17.14,19.3,26.36c0,0-7.56-11.69-20.87-25.64l1.88-2.85l-3.27,0.64L272.41,142.21z"/>
				<path class="st53" d="M298.66,138.16l0.85,0.97l-1,0.93l2.96,2.67c0,0,0.9,18.75-2.71,31.17c0,0,4.9-11.39,3.79-31.68l-3.2-2.17
					l1.05-1.03L298.66,138.16z"/>
				<path class="st52" d="M288.59,241.63c0,0-0.04,0.02-0.11,0.09l4.14-4.41c-1.91,2.7,0.29,15.04,0.52,17.86
					c0.23,2.83-2.21,8.66-3.12,15.5c-0.91,6.83,0.96,16.57,0.96,16.6c-1.18-0.69-2.13-1.83-2.52-3.6
					c-1.41-6.39-0.87-18.34,0.68-23.32C290.7,255.36,288.59,241.63,288.59,241.63z"/>
				
					<linearGradient id="SVGID_42_" gradientUnits="userSpaceOnUse" x1="179.0183" y1="225.6479" x2="232.0465" y2="225.6479" gradientTransform="matrix(-0.9983 0.0579 0.0579 0.9983 475.4406 -53.735)">
					<stop  offset="0" style="stop-color:#5761D7"/>
					<stop  offset="0.0726" style="stop-color:#5472D8"/>
					<stop  offset="0.2791" style="stop-color:#4E9CDB"/>
					<stop  offset="0.4801" style="stop-color:#49BDDD"/>
					<stop  offset="0.6715" style="stop-color:#45D5DF"/>
					<stop  offset="0.8493" style="stop-color:#43E3E0"/>
					<stop  offset="1" style="stop-color:#42E8E0"/>
				</linearGradient>
				<path class="st63" d="M278.02,203.91c-9.02-0.11-20.46-29.76-21.72-35.89c-0.21-1.02-0.42-2.1-0.61-3.19
					c0.03,0.09,2.37,6.49,4.62,12.17c2.27,5.72,14.32,23.04,20.48,24.17c5.55,1.02,25.53-8.31,29.4-10.15c0.35,2.08,0.2,2.1,0.2,2.1
					S287.04,204.02,278.02,203.91z"/>
				<path class="st64" d="M280.95,127.38c-0.44,0.03-0.83-0.28-0.91-0.72l-0.45-2.55c0,0-1.36-3.43-4.24-2.08
					c0,0-1.81-2.46-1.32-7.68c3.2,4.8,10.3,7.02,10.3,7.02l-1.71,2.49c-0.19,0.28-0.31,0.61-0.33,0.95l-0.12,1.73
					c-0.03,0.44-0.38,0.78-0.82,0.81L280.95,127.38z"/>
			</g>
		</g>
		<g>
			<path class="st35" d="M175.35,269.16l0-9.53c1.91,1.02,3.86,2.02,5.85,2.99v9.53C179.21,271.18,177.25,270.18,175.35,269.16
				L175.35,269.16z M156.59,257.26V239.7c1.59,1.19,3.22,2.37,4.9,3.52v17.55C159.81,259.62,158.17,258.45,156.59,257.26
				L156.59,257.26z M165.53,263.43l0-20.7c1.75,1.11,3.55,2.2,5.39,3.26v20.7C169.08,265.63,167.28,264.55,165.53,263.43
				L165.53,263.43z M141.54,243.66v-22.97c1.22,1.34,2.49,2.66,3.81,3.96v22.97C144.03,246.32,142.76,245,141.54,243.66
				L141.54,243.66z M148.57,250.65v-24.89c1.41,1.27,2.87,2.52,4.37,3.75v24.89C151.44,253.18,149.98,251.93,148.57,250.65
				L148.57,250.65z M130.65,228.64v-26.98c0.81,1.46,1.68,2.91,2.61,4.34v26.98C132.32,231.55,131.45,230.1,130.65,228.64
				L130.65,228.64z M135.54,236.31v-35.1c1.02,1.4,2.1,2.79,3.23,4.16v35.1C137.64,239.1,136.56,237.71,135.54,236.31L135.54,236.31
				z M126.9,220.68v-39.64c0.59,1.51,1.24,3.01,1.95,4.49v39.64C128.14,223.69,127.49,222.19,126.9,220.68L126.9,220.68z
				 M193.23,229.47c-37.72-15.19-63.77-39.2-69.23-66.7v56.38c5.46,27.5,31.52,51.5,69.23,66.7V229.47L193.23,229.47z"/>
			<path class="st35" d="M303.82,292.1v-12.72c6.49-0.35,12.87-0.92,19.12-1.7v12.72C316.69,291.17,310.31,291.74,303.82,292.1
				L303.82,292.1z M273.33,292.16v-23.18c3.89,0.2,7.82,0.32,11.78,0.36c2.71,0.03,5.4,0.02,8.08-0.03v23.18
				c-2.68,0.05-5.37,0.06-8.08,0.03C281.14,292.47,277.21,292.35,273.33,292.16L273.33,292.16z M243.93,289.12v-35.43
				c6.15,0.97,12.44,1.75,18.86,2.31v35.43C256.37,290.86,250.08,290.09,243.93,289.12L243.93,289.12z M332.99,288.96v-37.42
				c6.1-0.99,12.06-2.18,17.86-3.55v37.42C345.06,286.79,339.1,287.97,332.99,288.96L332.99,288.96z M365.89,235.43
				c-24.03,7.39-51.59,11.47-80.79,11.18c-20.35-0.2-39.78-2.51-57.66-6.56v56.38c17.88,4.05,37.31,6.35,57.66,6.56
				c29.2,0.29,56.76-3.78,80.79-11.18V235.43L365.89,235.43z"/>
			<path class="st35" d="M406.39,251.55v-10.92c26.31-15.53,43.43-36.25,46.23-59.29v10.92C449.83,215.3,432.7,236.02,406.39,251.55
				L406.39,251.55z M453.01,209.98V153.6c-0.84,27.57-22.15,52.19-55.48,69.16v56.38C430.85,262.17,452.17,237.55,453.01,209.98
				L453.01,209.98z"/>
			<path class="st36" d="M452.63,181.35c-2.8,23.04-19.93,43.75-46.23,59.29v10.92c26.31-15.53,43.43-36.25,46.23-59.29V181.35
				L452.63,181.35z"/>
			<path class="st26" d="M262.79,255.99c-6.42-0.56-12.71-1.34-18.86-2.31v35.43c6.15,0.97,12.44,1.75,18.86,2.31V255.99
				L262.79,255.99z"/>
			<path class="st26" d="M322.95,277.68c-6.25,0.77-12.63,1.34-19.12,1.7v12.72c6.49-0.35,12.87-0.92,19.12-1.7V277.68
				L322.95,277.68z"/>
			<path class="st26" d="M350.85,247.99c-5.8,1.37-11.76,2.56-17.86,3.55v37.42c6.1-0.99,12.06-2.18,17.86-3.55V247.99
				L350.85,247.99z"/>
			<path class="st36" d="M293.19,269.31c-2.68,0.05-5.37,0.06-8.08,0.03c-3.96-0.04-7.89-0.16-11.78-0.36v23.18
				c3.89,0.2,7.82,0.32,11.78,0.36c2.71,0.03,5.4,0.02,8.08-0.03V269.31L293.19,269.31z"/>
			<path class="st26" d="M128.85,185.53c-0.71-1.48-1.37-2.98-1.95-4.49v39.64c0.59,1.51,1.24,3.01,1.95,4.49V185.53L128.85,185.53z
				"/>
			<path class="st26" d="M133.25,206c-0.93-1.43-1.8-2.88-2.61-4.34v26.98c0.81,1.46,1.68,2.91,2.61,4.34V206L133.25,206z"/>
			<path class="st36" d="M138.77,205.37c-1.13-1.37-2.21-2.76-3.23-4.16v35.1c1.02,1.4,2.1,2.79,3.23,4.16V205.37L138.77,205.37z"/>
			<path class="st26" d="M145.35,224.65c-1.32-1.3-2.6-2.62-3.81-3.96v22.97c1.22,1.34,2.49,2.66,3.81,3.96V224.65L145.35,224.65z"
				/>
			<path class="st36" d="M152.95,229.52c-1.51-1.23-2.97-2.48-4.37-3.75v24.89c1.41,1.27,2.87,2.52,4.37,3.75V229.52L152.95,229.52z
				"/>
			<path class="st36" d="M161.49,243.22c-1.68-1.15-3.31-2.32-4.9-3.52v17.55c1.59,1.19,3.22,2.37,4.9,3.52V243.22L161.49,243.22z"
				/>
			<path class="st36" d="M170.92,245.99c-1.84-1.06-3.64-2.15-5.39-3.26l0,20.7c1.75,1.11,3.55,2.2,5.39,3.26V245.99L170.92,245.99z
				"/>
			<path class="st36" d="M181.2,262.62c-1.99-0.97-3.94-1.97-5.85-2.99l0,9.53c1.91,1.02,3.86,2.02,5.85,2.99V262.62L181.2,262.62z"
				/>
		</g>
	</g>
</g>
</svg>
