<?xml version="1.0" encoding="utf-8"?>
<!-- Generator: Adobe Illustrator 24.2.0, SVG Export Plug-In . SVG Version: 6.00 Build 0)  -->
<svg version="1.1" id="Layer_1" xmlns="http://www.w3.org/2000/svg" xmlns:xlink="http://www.w3.org/1999/xlink" x="0px" y="0px"
	 viewBox="0 0 3000 2000" style="enable-background:new 0 0 3000 2000;" xml:space="preserve">
<style type="text/css">
	.st0{fill:#FFFFFF;}
	.st1{display:none;fill:#EBF3FA;}
	.st2{fill:#EBF3FA;}
	.st3{fill:#599DAD;}
	.st4{fill:#6BB7BF;}
	.st5{fill:#86D1CD;}
	.st6{fill:#F99746;}
	.st7{fill:#FFC294;}
	.st8{fill:#2C3A64;}
	.st9{fill:#FFB27D;}
	.st10{fill:#2B478B;}
	.st11{fill:#233862;}
	.st12{fill:#ED985F;}
	.st13{fill:#FF9843;}
	.st14{fill:#ED7D2B;}
	.st15{fill:#A83333;}
	.st16{fill:#BC3F3F;}
	.st17{fill:#A0E0DC;}
	.st18{fill:#57A9AD;}
	.st19{fill:#2A4E96;}
	.st20{fill:#1E3D70;}
	.st21{fill:#AFCDFB;}
	.st22{display:none;fill:#2E3552;}
</style>
<rect x="-6.39" y="-14.1" class="st0" width="3000" height="2000"/>
<g>
	<path class="st1" d="M2704.48,1602.76l-2351.94-0.73c0,0-346.24-364.54-54.62-722.2c228.37-280.08,556.65-244.37,760.33-109.19
		c86.74,57.57,253.37,254.91,481.85-73.72c81.02-116.55,208.54-198.47,349.44-247.57c85.1-29.14,175.07-48.78,277.35-54.45
		c94.4-5.14,195.75,2.57,285.08,30.31c212.34,65.65,321.19,231.59,127.45,486.8C2380.55,1173.99,3084.13,1235.7,2704.48,1602.76z"/>
	<path class="st2" d="M2855.95,1195.53c-43.75,245.56-256.82,398.55-532.57,484.92l-0.01,0.01c-24.56,7.7-49.62,14.87-75.11,21.52
		c-18.6,4.87-37.44,9.44-56.47,13.74c-1.92,0.44-3.8,0.87-5.63,1.28c-1.76,0.41-3.53,0.79-5.3,1.19
		c-82.18,18.17-167.88,31.45-254.77,40.42c-43.47,4.49-87.24,7.9-131.01,10.29c-82.11,4.51-164.23,5.46-244.44,3.34
		c-12.33-0.33-24.62-0.72-36.84-1.2c-4.85-0.18-9.7-0.38-14.53-0.59c-41.71-1.81-82.78-4.43-122.92-7.82h-0.04
		c-117.36-9.9-226.75-26.26-321.19-47.38c-0.01,0-0.01,0-0.03,0c-17.32-3.88-34.13-7.9-50.39-12.09c-7.6-1.96-15.06-3.93-22.41-5.96
		c-5.6-1.54-11.14-3.1-16.61-4.67c-54.46-15.7-101.56-33.18-139.35-51.95C512.75,1484.8,317.17,802.36,696.47,575.47
		c465.45-278.41,551.5-7.18,938.79-282.63C2095.9-34.76,2997.12,403.12,2855.95,1195.53z"/>
	<g>
		<g>
			<path class="st3" d="M2381.38,1412.75c0,0-24.08-27.86-1.49-45.56c0,0,16.5-9.91,29.96-9.1c0,0-19.07,31.71-12.9,34.87
				s18.68-36.86,18.68-36.86s37.56-3.61,49.64,2.15c0,0-32.11,26.06-25.35,27.61c6.76,1.55,41.44-24.03,41.44-24.03
				s34.96,5.9,33.09,27.05c-1.86,21.15-13.91,27.68-19.2,27.12c-5.29-0.56-36.26-12.29-36.94-7.99
				c-0.67,4.3,17.97,18.36,31.02,19.02c0,0-24.64,26.96-41.02,19.18c-16.38-7.78-17.78-20.11-27.99-24.74
				c-10.21-4.63-18.93-4.61-14.71,0.1c4.22,4.72,22.69,9.3,28.53,19.55c5.84,10.24,11.08,17.15-5.87,14.62
				c-16.95-2.53-44.49-14.83-45.7-28.91C2381.38,1412.75,2381.38,1412.75,2381.38,1412.75z"/>
			<g>
				<path class="st3" d="M2497.3,1389.45c0,0-94.95-3.63-115.91,23.3c0,0-4.64,13.77-18.91,26.32l-2.22,6.01
					c0,0,16.45-17.2,22.34-18.25C2382.59,1426.83,2373.38,1393.47,2497.3,1389.45z"/>
				<path class="st3" d="M2362.48,1439.07c0,0-20.38,14.95-21.8,41.66l3.7,0.33c0,0,6.51-27.62,18.27-38.42
					C2374.42,1431.84,2362.48,1439.07,2362.48,1439.07z"/>
			</g>
		</g>
		<g>
			<path class="st4" d="M2297.19,1377.71c0,0,38.31-21.27,20.43-50.15c0,0-14.3-17.73-29.62-22.29c0,0,8.17,43.06,0,44.07
				c-8.17,1.01-5.62-48.63-5.62-48.63s-40.35-19.25-56.18-17.73c0,0,25.03,42.04,16.85,41.03s-36.26-43.56-36.26-43.56
				s-41.37-7.6-48.01,16.72c-6.64,24.31,4.09,36.47,10.22,37.99c6.13,1.52,45.46,1.01,44.43,6.08c-1.02,5.07-27.58,13.17-42.39,8.61
				c0,0,16.34,40.02,37.8,37.99c21.45-2.03,28.09-15.2,41.37-16.21c13.28-1.01,22.98,2.53,16.34,6.08
				c-6.64,3.55-29.11,1.16-39.84,10.21c-10.73,9.04-19.41,14.61,0.51,18.67c19.92,4.05,55.67,1.52,62.82-13.68
				C2297.19,1377.71,2297.19,1377.71,2297.19,1377.71z"/>
			<g>
				<path class="st4" d="M2177.67,1304.77c0,0,107.26,34.44,119.51,72.94c0,0-0.51,17.22,10.21,36.98v7.6
					c0,0-11.24-25.83-17.36-29.38C2290.04,1392.91,2314.04,1359.48,2177.67,1304.77z"/>
				<path class="st4" d="M2307.4,1414.69c0,0,16.54,24.91,7.11,55.23l-4.26-1.13c0,0,4.13-33.4-4.52-50.2
					C2297.08,1401.79,2307.4,1414.69,2307.4,1414.69z"/>
			</g>
		</g>
		<g>
			<path class="st5" d="M2358.13,1348.37c0,0-50.5-28.04-26.93-66.1c0,0,18.85-23.37,39.05-29.38c0,0-10.77,56.76,0,58.09
				c10.77,1.34,7.41-64.1,7.41-64.1s53.19-25.37,74.06-23.37c0,0-32.99,55.42-22.22,54.08c10.77-1.34,47.8-57.42,47.8-57.42
				s54.53-10.02,63.29,22.03c8.75,32.05-5.39,48.07-13.46,50.08c-8.08,2-59.92,1.34-58.57,8.01c1.35,6.68,36.36,17.36,55.88,11.35
				c0,0-21.54,52.75-49.82,50.08c-28.28-2.67-37.03-20.03-54.53-21.37c-17.5-1.34-30.3,3.34-21.54,8.01
				c8.75,4.67,38.38,1.53,52.51,13.45c14.14,11.92,25.58,19.26-0.67,24.61c-26.26,5.34-73.39,2-82.81-18.03
				C2358.13,1348.37,2358.13,1348.37,2358.13,1348.37z"/>
			<g>
				<path class="st4" d="M2515.67,1252.22c0,0-141.38,45.4-157.54,96.15c0,0,0.67,22.7-13.46,48.74v10.02
					c0,0,14.81-34.05,22.89-38.73C2367.55,1368.4,2335.91,1324.33,2515.67,1252.22z"/>
				<path class="st4" d="M2344.67,1397.11c0,0-21.8,32.84-9.37,72.81l5.61-1.49c0,0-5.45-44.03,5.96-66.17
					C2358.27,1380.12,2344.67,1397.11,2344.67,1397.11z"/>
			</g>
		</g>
		<path class="st6" d="M2356.43,1556.6c54.63,0,98.91-43.92,98.91-98.09h-197.82C2257.52,1512.68,2301.8,1556.6,2356.43,1556.6z"/>
		<path class="st7" d="M2380.77,1555.85c-4.02,0.5-8.13,0.75-12.29,0.75c-54.63,0-98.91-43.92-98.91-98.1h24.57
			C2294.15,1508.56,2331.94,1549.85,2380.77,1555.85z"/>
		<path class="st6" d="M2456.7,1561.59h-200.55l0,0c0-6.68,5.46-12.1,12.2-12.1h176.15
			C2451.24,1549.49,2456.7,1554.91,2456.7,1561.59L2456.7,1561.59z"/>
		<rect x="2254.27" y="1458.51" class="st6" width="203.32" height="3.01"/>
	</g>
	<g>
		<path class="st8" d="M1324.3,632.37c-0.41-2.25-5.75-26.4-43.42-22.28c0,0,18.75-0.47,23.11,7.1c0,0-14-8.12-23.76-3.46
			c-9.75,4.66-13.16,23.29-12.36,29.14c0.79,5.85,9.23,23.86,15.95,24.53c2.55,0.25,5.35-0.32,7.86-1.12
			c-1.33,2.92-2.59,6.11-3.73,9.64c-10.5,32.6,9.28,60.14,21.46,55.03c7.81-3.28,12.12,10.13,12.12,10.13l69.62-74.7
			C1391.15,666.37,1353.47,611.08,1324.3,632.37z"/>
		<path class="st9" d="M1606.35,986.37c0,0-17.43-10.91-28.24-9c-2.24-0.8-7.03-2.69-5.81-3.78c1.57-1.4,5.74-5.52,5.32-6.77
			c-0.42-1.24-4.6,2.07-10.66,3.11c-6.06,1.04-7.73,2.28-9.19,4.56c-1.46,2.28-6.74,3.26-6.74,3.26s0.01,0,0.01,0
			c-3.09-0.35-5.69-0.72-7.33-0.96c-5.12-2.13-12.04-5.04-19.66-8.38c-21.89-9.72-49.41-22.74-55.42-29.36
			c-13.93-15.41-30.59-67.05-46.28-101.14c-0.8-1.84-1.62-3.62-2.42-5.38c-3.13-6.77-7.63-13.9-14.04-22.1
			c-3.46-3.69-6.13-5.12-9.21-3.84c0,0-4.11,2.07-9.03,6.88c-1.04,1-2.1,2.13-3.18,3.38c-0.76,0.63-1.28,1.39-1.79,2.16
			c-3.73,4.69-7.33,10.91-9.53,18.79c-1.68,5.96-2.6,12.83-2.23,20.83c0.49,13.09,6.98,29.5,16.29,46.04
			c0.39,0.77,0.77,1.53,1.28,2.29c17.87,31.18,45.35,62.38,62.11,72.58c11.01,6.76,38.67,10.89,62,13.23
			c9.86,1.07,18.99,1.78,25.78,2.26c0.52,0.08,1.14,0.17,1.86,0.26c5.86,1.07,17.93,3.41,29.42,7.09
			c16.07,5.25,25.29-5.48,32.09-8.81C1608.55,990.36,1606.35,986.37,1606.35,986.37z"/>
		<path class="st10" d="M1415,1532.01l-16.93,6.25c0,0-73.55-101.16-82.6-190.17c-1.62-15.89-1.08-31.29,2.42-45.5
			c0,0-0.72-4.07-1.98-11.27c-0.58-3.36-1.3-7.4-2.12-12.04c-2.39-13.59-5.68-32.18-9.44-53.35
			c-8.65-48.71-19.86-110.98-28.57-156.76l4.56-1.45l49.37-15.8l10.2-32.14l36.76-9.6c0,0,8.21,15.93,15.55,91.18
			c1.35,9.87,2.58,20.76,3.51,32.56c2.86,36.03,3.07,80.72-3.5,131.82c-1.69,13.08-3.82,26.58-6.46,40.46
			c-1.93,10.17-2.23,24.03-1.41,39.95C1388.07,1418.94,1415,1532.01,1415,1532.01z"/>
		<path class="st11" d="M1395.73,1133.94l-79.82,157.38c-0.58-3.36-1.3-7.4-2.12-12.04c-2.39-13.59-5.68-32.18-9.44-53.35
			c-8.65-48.71-19.86-110.98-28.57-156.76l4.56-1.45l49.37-15.8l10.2-32.14l36.76-9.6c0,0,8.21,15.93,15.55,91.18
			C1393.57,1111.25,1394.8,1122.14,1395.73,1133.94z"/>
		<path class="st10" d="M1360.62,1030.39l-1.85-15.72c-30.96,8.15-113.67-22.79-113.67-22.79s-29.99,26.14-26.05,88.82
			c1.92,30.59,5.43,160.57,9.1,199.04c1.33,13.94,2.49,23.86,2.96,27.82c0.01,0.02,0.01,0.03,0.01,0.04
			c0.15,1.21-0.28,2.35-0.9,3.41c-5.4,9.09-9.87,18.54-13.53,28.23c-35.99,95.11,5.54,212.24,5.54,212.24l10.78-4.31
			c0,0,23.63-130.35,42.84-187.93c3.26-9.77,6.38-17.44,9.25-22.03c8.35-13.36,16.1-35.2,23.13-61.17
			c13.29-49.1,23.99-112.98,31.11-162.29C1340.31,1113.79,1360.62,1030.39,1360.62,1030.39z"/>
		<path class="st9" d="M1387.49,839.66c-8.97,5.81-20.14,10.49-34.08,13.27c-52.25,10.44-70.91-33.63-77.53-63.71
			c7.19-3.82,13.88-4.52,17.74-4.87c3.76-0.33,7.72-0.52,10.99-0.58c5.95-4.27,15.16-22.15,17.88-50.23l2.42,0.72l40.6,12.25
			c0,0-2.24,12.85-3.51,25.01c-0.98,9.52-1.35,18.64,0.41,20.92c3.17,0.78,5.08,1.28,5.08,1.28s0,0.01,0.02,0.04
			C1368.03,794.67,1379.35,814.36,1387.49,839.66z"/>
		<path class="st12" d="M1365.51,746.52c0,0-2.25,12.83-3.51,25.01c-23.12-2.95-33.25-25.14-37.1-37.26L1365.51,746.52z"/>
		<path class="st9" d="M1372.09,758.82c0,0-54.93-4.55-51.55-38.43c3.38-33.88-1.43-57.29,33.79-55.82
			c35.22,1.47,40.73,15.07,42.38,26.65C1398.34,702.8,1386.46,759.13,1372.09,758.82z"/>
		<path class="st13" d="M1419.92,832.53c-3.42-7.41-12.29-23.63-19.46-27.1c0,0,0.01-0.01,0.01-0.01c0,0-9.09-6.23-32.9-11.67
			c0.53,1.19,15.11,34.35,12.71,42.18c-2.54,7.96-73.29-6.5-77.84-11.41c-3.61-3.98-7.09-27.46-8.29-36.48
			c-0.4-2.26-0.54-3.71-0.54-3.71s-25.55,0.26-38.92,7.96c0,0,7.36,11.28,11.37,24.14c0.4,1.33,0.67,2.52,1.07,3.72
			c0.54,2.65,1.07,5.3,1.34,7.96c0.27,3.45-1.07,6.76-3.48,10.21c-2.27,3.05-5.35,6.37-8.96,9.82c-2.27,2.26-4.81,4.64-7.36,7.16
			c0.67,5.57,1.74,12.2,2.81,19.9c2.14,13.93,4.41,31.04,5.08,49.08c0.27,7.03-1.07,13.93-3.88,20.43c-1.07,2.52-2.41,5.04-4.01,7.3
			c-12.44,18.7-33.84,55.45-25.14,75.08c0.8,4.78,12.04,8.49,28.22,11.01c48.28,7.69,141.5,4.78,136.56-10.74
			c0,0,7.36-121.64,16.58-152.01c0.27-1.06,0.54-2.25,0.8-3.32c2.37-10.77,0.6-21.19-1.95-30.6
			C1408.43,837.02,1415.46,834.08,1419.92,832.53z"/>
		<path class="st8" d="M1396.97,672.22c-7.45-11.03-14.08-9.43-17.98-6.73c-28.33-19.32-59.55-2.17-59.55-2.17
			c-6.12,23.95-15.73,41.22-15.73,41.22s9.38,7.12,33.02,3.53c7.22-1.1,14.01-5.44,19.96-10.92
			c-10.89,14.58-24.71,24.49-24.71,24.49c28.8-9.89,43.69-46.76,45.19-50.66c3.05,3.31,8.99,10.45,10.36,16.99
			c1.86,8.9,1.3,26.78,6.58,26.7C1394.1,714.66,1408.14,688.77,1396.97,672.22z"/>
		<path class="st14" d="M1281.3,958.63c-6.55,15.52-13.51,54.12-29.56,79.45c-16.18-2.52-27.42-6.23-28.22-11.01
			c-8.69-19.63,12.71-56.37,25.14-75.08c1.61-2.26,2.94-4.77,4.01-7.3c2.81-6.5,4.15-13.4,3.88-20.43
			c-0.67-18.04-2.94-35.15-5.08-49.08c2.81-5.84,4.41-9.15,4.41-9.15S1291.73,933.69,1281.3,958.63z"/>
		<path class="st11" d="M1284.88,1560.21h-85.28c0,0-2.04-12.89,2.41-22.67c4.27-9.38,10.95-13.65,9.35-25
			c5.42,5.53,14.25,11.73,26.58,10.09c1.51,2.43,9.75,15.43,14.8,19.02C1258.31,1545.61,1283.16,1544.2,1284.88,1560.21z"/>
		<path class="st11" d="M1467.99,1560.21h-85.28c0,0-3.19-13.49,2.41-22.67c4.96-8.12,3.06-12.75-0.61-19.47
			c3.86,1.57,8.86,3,14.36,2.68c4.25-0.24,8.74-2.15,12.68-4.42c3.67,4.15,19.39,21.82,24.3,25.32
			C1441.42,1545.61,1466.28,1544.2,1467.99,1560.21z"/>
		<path class="st0" d="M1358.98,739.23c0,0,0.77,4.48,11.9,4.5c0,0,9.34,0.01,9.37-4.87
			C1380.25,738.86,1371.45,734.84,1358.98,739.23z"/>
		<g>
			<path class="st15" d="M1448.53,935.43l-9.24,75.86c-1.74,14.25,9.48,26.79,23.95,26.79h82.48l38.97-102.65H1448.53z"/>
			<g>
				<path class="st15" d="M1477.18,943.05c0.04-0.48,4.19-47.88,32.83-46.99c29.09,0.87,36.58,42.99,36.66,43.42l5.69-0.95
					c-0.08-0.48-2.05-11.78-8.07-23.38c-8.2-15.81-20-24.39-34.11-24.81c-14.37-0.43-25.6,8.65-32.59,26.27
					c-5.08,12.77-6.13,25.46-6.17,25.99L1477.18,943.05z"/>
			</g>
			<path class="st16" d="M1584.68,935.43h-125.57l18.06,78.63c3.23,14.05,15.83,24.02,30.36,24.02h76.33
				c16.61,0,28.44-16.01,23.43-31.72L1584.68,935.43z"/>
			<g>
				<path class="st16" d="M1487.19,943.05c0.04-0.48,4.19-47.88,32.84-46.99c29.08,0.87,36.58,42.99,36.66,43.42l5.69-0.95
					c-0.08-0.48-2.05-11.78-8.07-23.38c-8.2-15.81-20-24.39-34.11-24.81c-14.37-0.43-25.6,8.65-32.59,26.27
					c-5.08,12.77-6.13,25.46-6.17,25.99L1487.19,943.05z"/>
			</g>
		</g>
		<g>
			<path class="st9" d="M1443.7,1041.76c-19.14-2.78-117.12-29.36-125.57-35.84c-6.79-4.36-27.34-22.35-47.16-60.73
				c-2.75-5.3-5.35-10.61-7.93-15.77c-9.31-19.25-17.09-38.33-22.23-54.95c-3.18-9.9-5.51-18.98-6.5-26.54
				c-0.39-2.67-0.77-5.18-0.84-7.57c-0.12-1.37-0.21-2.72-0.27-4.02c7.51-6.57,24.85-18.85,48.56-17.66
				c0.5,0.84,0.99,1.68,1.49,2.54c10.29,18.41,51.5,138.62,53.68,143.37c2.01,4.39,86.6,48.65,107.86,58.13
				C1453.62,1026.72,1443.7,1041.76,1443.7,1041.76z"/>
			<path class="st13" d="M1304.86,861.33c-35.48-15.93-69.54,3.86-69.54,3.86c-12.69-67.49,27.42-76.32,27.42-76.32
				C1271.09,784.52,1316.97,828.17,1304.86,861.33z"/>
		</g>
		<path class="st9" d="M1444.79,1022.72c0,0,8.4-2.83,12.06-4.69c3.66-1.86,11.28-0.07,16.84-1.05c5.56-0.98,6.24,1.09,4.31,2.62
			c-1.92,1.53-10.13,3.73-11.43,5.33c-1.3,1.61,16.39,3.15,24.74,0.47c8.36-2.68,9.04-1.29,6.03,4.7c-3.01,6-17,17.57-26.37,17.14
			c-9.37-0.43-27.28-5.48-27.28-5.48L1444.79,1022.72z"/>
	</g>
	<rect x="830.84" y="1122.22" class="st17" width="1235.22" height="439.56"/>
	<rect x="812.6" y="1122.22" class="st4" width="298.66" height="439.56"/>
	<rect x="1065.79" y="1097.64" class="st5" width="1051.73" height="32.42"/>
	
		<rect x="791.59" y="1097.64" transform="matrix(-1 -1.224647e-16 1.224647e-16 -1 1871.3274 2227.709)" class="st18" width="288.14" height="32.42"/>
	<g>
		<path class="st14" d="M1773.65,679.44l-8.77,72.01c-1.65,13.52,9,25.43,22.73,25.43h78.29l36.99-97.44H1773.65z"/>
		<g>
			<path class="st14" d="M1800.84,686.68c0.04-0.46,3.98-45.45,31.17-44.6c27.61,0.83,34.73,40.81,34.8,41.22l5.4-0.9
				c-0.08-0.45-1.95-11.19-7.66-22.19c-7.79-15.01-18.98-23.15-32.38-23.55c-13.64-0.41-24.3,8.21-30.94,24.93
				c-4.82,12.13-5.82,24.17-5.86,24.67L1800.84,686.68z"/>
		</g>
		<path class="st13" d="M1902.89,679.44h-119.19l17.14,74.64c3.06,13.34,15.02,22.8,28.82,22.8h72.45
			c15.77,0,26.99-15.2,22.24-30.11L1902.89,679.44z"/>
		<g>
			<path class="st13" d="M1810.34,686.68c0.04-0.46,3.98-45.45,31.17-44.6c27.61,0.83,34.73,40.81,34.8,41.22l5.4-0.9
				c-0.08-0.45-1.95-11.19-7.66-22.19c-7.79-15.01-18.98-23.15-32.38-23.55c-13.64-0.41-24.3,8.21-30.94,24.93
				c-4.82,12.13-5.82,24.17-5.86,24.67L1810.34,686.68z"/>
		</g>
		<g>
			<path class="st9" d="M2013.54,765.59c-35.91-6.27-64.94-19.29-79.06-31.43c-26.27-22.59-73.51-72.59-73.51-72.59
				s-3.58-4.89-3.2-7.71c0.38-2.82,1.51-8.83-4.16-12.77c-5.68-3.94-7.76-9.58-9.47-8.45c-1.7,1.13,0.15,7.27,1.7,10.14
				c1.55,2.87,0.76,4.13-3.41,1.5c-0.84-0.53-1.96-1.3-3.25-2.16c-6.11,0.42-10.96,3.25-14.79,7.3c2.96,6.37,7.81,12.89,11.61,14.01
				c7.01,2.07,11.93,6.07,11.93,6.07s42.03,86.04,78.16,104.65c36.13,18.61,92.25,49.08,92.25,49.08l63.37-38.56
				C2081.71,784.68,2052.01,772.31,2013.54,765.59z"/>
			<path class="st9" d="M1832.25,637.96c-3.74-1.87-7.44-2.91-9.53-1c-1.27,1.15-1.25,3.73-0.42,6.83
				C1825.3,641.08,1828.64,639.14,1832.25,637.96z"/>
		</g>
		<g>
			<path class="st19" d="M2001.58,809.36c3.06,11.61,8.67,22.55,18.65,28.9c0.51,0.33,1.04,0.63,1.54,0.9
				c8.85,4.69,15.89,0.2,21.39-8.1c2.74-4.13,5.1-9.19,7.1-14.56c6.64-17.76,12.2-39,12.2-39c-1.26-1.37-24.92-11.61-63.31-14.87
				C1999.16,762.64,1995.75,787.23,2001.58,809.36z"/>
			<path class="st20" d="M2001.58,809.36c3.06,11.61,8.67,22.55,18.65,28.9c0.51,0.33,1.04,0.63,1.54,0.9
				c7.47-2.28,15.34-5.06,21.39-8.1c9.16-4.57,14.13-9.72,7.1-14.56c-1.7-1.19-4.1-2.34-7.32-3.47
				C2024.41,806.52,2010.81,807,2001.58,809.36z"/>
			<path class="st11" d="M1990.54,1561.59h94.41c0,0,2.26-14.27-2.67-25.1c-4.73-10.39-12.13-15.11-10.35-27.68
				c-6,6.13-15.78,12.98-29.43,11.16c-1.67,2.69-10.8,17.08-16.38,21.06C2019.95,1545.44,1992.44,1543.87,1990.54,1561.59z"/>
			<path class="st11" d="M1800.46,1561.59h94.41c0,0,2.26-14.27-2.67-25.1c-4.72-10.39-12.13-15.11-10.35-27.68
				c-6,6.13-15.78,12.98-29.43,11.16c-1.67,2.69-10.8,17.08-16.38,21.06C1829.87,1545.44,1802.36,1543.87,1800.46,1561.59z"/>
			<path class="st15" d="M2127.99,1013.03c0,0,31.98,7.49-2.08,174.29c-25.29,123.82-23.32,111.95-18.53,161.17
				c4.79,49.23-41.83,178.7-41.83,178.7l-22.97-1.81c0,0,5.38-255.92-21.7-412.54C2003.07,1009.83,2127.99,1013.03,2127.99,1013.03z
				"/>
			<path class="st16" d="M2015.05,1006.54c0,0-73.72,348.94-162.63,513.44c0,0,3.58,5.4,13.93,3.84
				c5.46-0.83,15.27-10.02,15.27-10.02s122.87-129.5,119.29-179.77c-3.58-50.27,214.69-268.91,115.12-335.01
				C2053.58,957.54,2015.05,1006.54,2015.05,1006.54z"/>
			<path class="st9" d="M2119.14,778.04c-5.1-4.98-11.32-23.57-9.79-51.06l-2.44,0.33l-40.98,5.89c0,0,0.01,0.42,0.03,1.18
				c0.04,3.42,0.12,13.72-0.36,23.47c-0.47,9.32-1.46,18.17-3.5,20.12C2058.92,778.25,2088.47,802.05,2119.14,778.04z"/>
			<path class="st19" d="M1994.96,930.22c0.55,48.55,1.77,103.87,9.44,114.49c7.65,10.62,119.73,0.56,133.36-13.81
				c8.6-9.06-0.12-28.24-9.77-50.12h-0.02c-5.62-12.76-11.57-26.43-14.59-39.53c-2.91-12.68,12.47-54.28,18.39-94.77
				c2.62-17.86,3.38-35.53-0.08-50.39c-4.29-18.4-15.8-27.18-29.69-29.37c0.42,0.81,0.74,1.71,0.94,2.67c0,0-20.46,18.97-40.49,8.1
				c-9.83,5.57-22.99,12.21-28.56,20.19C2006.84,836.49,1994.4,881.67,1994.96,930.22z"/>
			<path class="st12" d="M2065.6,757.84c16.24-1.06,36.47-20.21,36.47-20.21c-16.85-4.37-28.47-4.86-36.11-3.26
				C2066,737.79,2066.08,748.1,2065.6,757.84z"/>
			<path class="st9" d="M2049.4,734.23c0,0,48.83,22.38,62.41-7.99c13.59-30.37,29.04-47.94-1.56-63.51
				c-30.6-15.57-41.88-6.67-48.91,2.38C2054.32,674.15,2037.05,727.63,2049.4,734.23z"/>
			<path class="st20" d="M2074.13,854.9c0,0,1.68,96.64,53.85,125.89c-5.62-12.76-11.57-26.43-14.59-39.53
				c-2.91-12.68,12.47-54.28,18.39-94.77c-6.3-11.63-13.35-18.48-20.28-16.8C2078.17,837.77,2074.13,854.9,2074.13,854.9z"/>
			<path class="st9" d="M1845.25,877.66c0,0,8.4-1.72,11.67,1.67c0,0,97.33,25.71,125.9,22.61
				c28.57-3.1,106.45-100.03,106.45-100.03c38.81-17.18,32.52,34.1,33.84,53.64c1.32,19.54-78.79,91.33-132,90.18
				c-53.21-1.15-146.95-57.61-146.95-57.61s-17.25,7.45-23.12,5.93c-2.98-0.77-8.2-3.96-12.62-6.91c-2.75-1.84-1.64-6.08,1.66-6.37
				L1845.25,877.66z"/>
			<path class="st19" d="M2045.43,844.54c-0.82-1.26,43.16-64.99,61.72-52.35c18.57,12.64,32.65,59.25,1.54,98.18
				C2108.69,890.37,2072.51,886.2,2045.43,844.54z"/>
			<path class="st16" d="M2065.82,636.21c7.05-18.78,38.52-6.01,62.17,0c23.65,6.01,69.85,24.04,50.16,80.37
				c-19.2,54.93,9.92,91.93-23.75,113.97c-3.9,2.55-7.48,5.6-10.31,9.29c-11.78,15.37-19.04,41.57-19.04,41.57
				c-0.63-18.43-15.59-19.73-29.04-33.98c-13.44-14.25,5.1-31.26,10.34-43.68c5.24-12.41-5.05-27.61-5.05-27.61
				c-11.86-9.68,7.71-26.96-4.91-44.09c-12.62-17.13,2.47-34.08-17.72-40.52c-20.19-6.44-10.56-33.28-10.56-33.28
				S2058.78,654.99,2065.82,636.21z"/>
		</g>
	</g>
	<rect x="658.5" y="907.07" class="st21" width="289.8" height="19.25"/>
	<rect x="891.07" y="677.05" class="st21" width="289.8" height="19.25"/>
	<path class="st22" d="M2893.18,1606.61H106.82c-1.74,0-3.16-1.42-3.16-3.16v-1.08c0-1.74,1.42-3.17,3.16-3.17h2786.36
		c1.74,0,3.17,1.42,3.17,3.17v1.08C2896.35,1605.19,2894.92,1606.61,2893.18,1606.61z"/>
	<g>
		<path class="st4" d="M723.88,802.2l-9.44,77.5c-1.77,14.55,9.68,27.37,24.46,27.37h84.26l39.81-104.87H723.88z"/>
		<g>
			<path class="st4" d="M753.15,809.99c0.04-0.49,4.28-48.91,33.54-48c29.71,0.89,37.37,43.92,37.45,44.36l5.82-0.97
				c-0.08-0.49-2.1-12.04-8.24-23.88c-8.38-16.15-20.43-24.92-34.84-25.35c-14.68-0.44-26.15,8.84-33.3,26.83
				c-5.19,13.05-6.26,26.01-6.3,26.55L753.15,809.99z"/>
		</g>
		<path class="st17" d="M862.97,802.2H734.69l18.45,80.33c3.3,14.36,16.17,24.54,31.01,24.54h77.97c16.97,0,29.05-16.35,23.94-32.4
			L862.97,802.2z"/>
		<g>
			<path class="st17" d="M763.37,809.99c0.04-0.49,4.28-48.91,33.54-48c29.71,0.89,37.37,43.92,37.45,44.36l5.81-0.97
				c-0.08-0.49-2.1-12.04-8.24-23.88c-8.38-16.15-20.43-24.92-34.84-25.35c-14.68-0.44-26.15,8.84-33.3,26.83
				c-5.19,13.05-6.26,26.01-6.31,26.55L763.37,809.99z"/>
		</g>
	</g>
	<g>
		<path class="st11" d="M958.92,574.92l-9.2,75.47c-1.73,14.17,9.43,26.66,23.83,26.66h82.06l38.77-102.13H958.92z"/>
		<g>
			<path class="st11" d="M987.43,582.51c0.04-0.48,4.17-47.64,32.67-46.75c28.94,0.87,36.4,42.78,36.47,43.2l5.66-0.95
				c-0.08-0.47-2.04-11.72-8.03-23.26c-8.16-15.73-19.9-24.27-33.94-24.69c-14.3-0.42-25.47,8.61-32.43,26.13
				c-5.05,12.71-6.1,25.33-6.14,25.86L987.43,582.51z"/>
		</g>
		<path class="st19" d="M1094.39,574.92H969.45l17.97,78.23c3.21,13.98,15.75,23.9,30.2,23.9h75.94c16.53,0,28.29-15.93,23.31-31.56
			L1094.39,574.92z"/>
		<g>
			<path class="st19" d="M997.38,582.51c0.04-0.48,4.17-47.64,32.67-46.75c28.94,0.87,36.4,42.78,36.47,43.2l5.66-0.95
				c-0.08-0.47-2.04-11.72-8.03-23.26c-8.16-15.73-19.9-24.27-33.93-24.69c-14.3-0.42-25.47,8.61-32.43,26.13
				c-5.05,12.71-6.1,25.33-6.14,25.86L997.38,582.51z"/>
		</g>
	</g>
</g>
</svg>
